<mxfile host="app.diagrams.net" agent="Mozilla/5.0 (X11; Linux x86_64) AppleWebKit/537.36 (KHTML, like Gecko) Chrome/131.0.0.0 Safari/537.36" version="26.0.2">
  <diagram name="PÃ¡gina-1" id="eGXeKf5tvGr_kJZ-Ue_N">
    <mxGraphModel dx="1434" dy="788" grid="1" gridSize="10" guides="1" tooltips="1" connect="1" arrows="1" fold="1" page="1" pageScale="1" pageWidth="827" pageHeight="1169" math="0" shadow="0">
      <root>
        <mxCell id="0" />
        <mxCell id="1" parent="0" />
        <mxCell id="DNTRqTkwEnmL52qoKm-J-2" value="" style="shape=image;verticalLabelPosition=bottom;labelBackgroundColor=default;verticalAlign=top;aspect=fixed;imageAspect=0;image=data:image/jpeg,/9j/4AAQSkZJRgABAQEBLAEsAAD/4RZiRXhpZgAASUkqAAgAAAAIAA4BAgAYAAAAbgAAABIBAwABAAAAAQAAABoBBQABAAAAhgAAABsBBQABAAAAjgAAACgBAwABAAAAAgAAADEBAgANAAAAlgAAADIBAgAUAAAApAAAAGmHBAABAAAAuAAAAPYAAABHZW5lcmF0ZWQgYnkgRlNJIFNlcnZlcgAsAQAAAQAAACwBAAABAAAAR0lNUCAyLjEwLjMwAAAyMDIyOjEwOjExIDA4OjU5OjA5AAIAhpIHAB8AAADWAAAAAaADAAEAAAABAAAAAAAAAAAAAAAAAAAAR2VuZXJhdGVkIGJ5IEZTSSBTZXJ2ZXIACQD+AAQAAQAAAAEAAAAAAQQAAQAAAAABAAABAQQAAQAAAAABAAACAQMAAwAAAGgBAAADAQMAAQAAAAYAAAAGAQMAAQAAAAYAAAAVAQMAAQAAAAMAAAABAgQAAQAAAG4BAAACAgQAAQAAAOwUAAAAAAAACAAIAAgA/9j/4AAQSkZJRgABAQAAAQABAAD/2wBDAAgGBgcGBQgHBwcJCQgKDBQNDAsLDBkSEw8UHRofHh0aHBwgJC4nICIsIxwcKDcpLDAxNDQ0Hyc5PTgyPC4zNDL/2wBDAQkJCQwLDBgNDRgyIRwhMjIyMjIyMjIyMjIyMjIyMjIyMjIyMjIyMjIyMjIyMjIyMjIyMjIyMjIyMjIyMjIyMjL/wAARCAEAAQADASIAAhEBAxEB/8QAHwAAAQUBAQEBAQEAAAAAAAAAAAECAwQFBgcICQoL/8QAtRAAAgEDAwIEAwUFBAQAAAF9AQIDAAQRBRIhMUEGE1FhByJxFDKBkaEII0KxwRVS0fAkM2JyggkKFhcYGRolJicoKSo0NTY3ODk6Q0RFRkdISUpTVFVWV1hZWmNkZWZnaGlqc3R1dnd4eXqDhIWGh4iJipKTlJWWl5iZmqKjpKWmp6ipqrKztLW2t7i5usLDxMXGx8jJytLT1NXW19jZ2uHi4+Tl5ufo6erx8vP09fb3+Pn6/8QAHwEAAwEBAQEBAQEBAQAAAAAAAAECAwQFBgcICQoL/8QAtREAAgECBAQDBAcFBAQAAQJ3AAECAxEEBSExBhJBUQdhcRMiMoEIFEKRobHBCSMzUvAVYnLRChYkNOEl8RcYGRomJygpKjU2Nzg5OkNERUZHSElKU1RVVldYWVpjZGVmZ2hpanN0dXZ3eHl6goOEhYaHiImKkpOUlZaXmJmaoqOkpaanqKmqsrO0tba3uLm6wsPExcbHyMnK0tPU1dbX2Nna4uPk5ebn6Onq8vP09fb3+Pn6/9oADAMBAAIRAxEAPwD3+iiigAooooAKKKKACiiigAooooAKKKKACiiigAooooAKKKKACiiigAooooAKKKKACiiigAooooAKKKKACiiigAooooAKKKKACiiigAooooAKKKKACiiigAooooAKKKKACiiigAooooAKKKKACiiigAooooAKKKKACiiigAooooAKKKKACiiigAooooAKKKKACiiigAoo6Vgar400HSAyzXySzDP7mD52J9OOB+JFKUlFXbGk3sb9YGkeL9L1nWr7S7eZPPtmwh3giZcclfXByP1rzHxJ471fW98Ns/2OxcbfKQjc4/2m/oMD61ykMBt3jljLJIh3K8ZwVIPUEVxTxsU/d2NVRdtT6Yory7wr8THWRLHXjuXot2ByP98Dr9R+PrXpsFxDdQJPbypLE4yro2Qw9iK6qdWNRXiZyi47klFFFaEhRRRQAUUUUAFFFFABRRRQAUUUUAFFFFABRRRQAUUUUAFFFFABRRRQAUVBeXtrp9u1xeXEcEK9XkYKK808Q/FRnaS10GPavT7XKvJ/3VPT6n8qyq1oUleTKjBy2PTLm6t7OFprmaOGNQSWdgAK4LWvipZ28jwaRbG7kHHnSHbH9QOp/SvNLm7vNUmM99cS3Mh/ikbOPp6D2FRLZliCDwDkY/z7V51THylpBWOiNBLc2dT8Va5rhZLu+YQN/wAsYfkTHoQOv45rLjtk25HXtT/LUFVztz6irUOFBLetcU6kpat3NkktEU/K+U54X+RpwUxbSpI46rx3qxKTnK9P1pBIyLtVUIZACWUHHPY9R07UJ6BYrJbrIHkPLHnFXtJ1zUtBmL2FwyZOWjJyj/Uf1ojYexNQuu7tyD6VMJyUrpg0mj0HTfilFhU1WxdG/wCetvyP++Scj8zXX6Z4l0fVwBZX8TyH/lmx2v8A98nmvCxEGHrTGgCrx1/Gu2GPnHSWpjKinsfRlFeJ2HjbXtEjEaTxXcJHypPl8DPUHII+hP4V22h/EnTNR2x6hGbCY8bmbMZ/4F2/H8676eLpz0vZmMqUkdtRTUdZEDowZWGQynIIp1dJmFFFFABRRRQAUUUUAFFFFABRRRQAUUUUAFFFFABWD4n8Waf4XsvMum33Dg+Tbr95z/Qe/wDPpU3ibxDbeGtGkv5xvbIWKLODIx7f1PsK8B1LUb3W9Rlv9QbfPIwPU4Qc/KozwOf0+tcmKxKpKy3NadPm1exZ13xBqPiTUPtV7ISq/wCrgX7sY9v8etU4kABYjOe5HSnIqHB6eo9atKpGM9vavGlJyd5bnWkkrIdBggADBxgH0qdVxgk8d6hhLAjAA9KuJEXOR+VQ9BkAQ+g47ZHNSqqq544PIp5iwPu/n/jSZH3SMEdBTvoIYy9gPwP+NJIhYRnP8PTHvTzzkqPwzSgZiIwMhv0prYBFI+pH405trlsrgbemKQLj5jnrT8BlJyOTioW4yAKM8cjFK67V46fSrCxkDqMe9RzJtBPTjIOaL6gVGi3EjsDTZYPl64PYVKDtG58AevSkDRkk+YAPqDTAu+H/ABNq3huTNu/mWx5e3kJKn6f3T7/nXrnh7xZpviJNtuxjuQu54JPvAZxkeo/xFeKyThYHhSQhHPzKG4PpkVVhvLizuIrmzkeGeJsiRDjFdeHxc6ej1RlOkpep9I0VzHgvxUviXTnEwVb63IWZV6MOzD6+ldPXtQmpxUo7HI007MKKKKoQUUUUAFFFFABRRRQAUUUUAFFFFAHiPxM1SbUfFL2UgeO3slCRqTkMx5LfyH4VysUasVVifl9O9eofErRUea31EDAk/duQOQw5B/EcfhXmzwyw3Gxlz/tDjNeBi4yVWXMd1JpxSRL9nTblW/CpYi0foR7jP/16iQlAeOfWrIfcAcjHqO1c9zSwoZWyxj/Edalhfa2R17Z70zCjqcUuQecZHqRQrCLZl3Lg4PsOKhXoOOfpTTIOjHn+dPAJAzjAGM9qnltsFxGjGNw5PcD1pYQMMCDk4NGGByDxSeWyNvjHOfu//rqr3ES4U8BTzSDYueQAPWq8jmJ2YJkkfIp96qOzscuevb0qLW0LsWpr1F4RS3uKpTXUxOSwUEdh0+tISDnk59qhdQTzyc9qpIdkGwspJ5OOuKbJuwRg/gasAAjGDUe0LhuPzp3KGLtJG4EA9s1DIixjei5GOmelWCnmAkDJpRDhCWHHp1NFxNE+g6zf6JqS6ha7TIqldj52sCMYIBGf8QK7eL4sXsaD7RpMEhxk+XKUz9Mg15+sO9sLxjNTRxkr93BFaxxNSkrRZm6cZbo9Ng+LOlsoNxp17Gcc7NjAH8SKnPxW0AKWaDUB7GJOf/Hq8nkjxkgZJPpVZ4mbt9Sa2WYVbEPDwPXrH4mRazrFpp+laTcyGaZVd5SF2Jn5mwM9Bk9a7yvDvhtdQ2XjOFJDxPE8SHsGOCP5Y/Gvca9LCVZVYc0mc1WKjKyCiiiuoyCiiigAooooAKKKKAKOsacmraTc2UnSVflPow5B/MCvEr62mXzICuyeFiHGeQRwR+hr3uvNPHelG01dL6MbYrkfMVB4cdfbkYP51wY+lzR510NqUrOx55G+/ILDipR8uMMCfUVBKipcyKQMhiCP8/hVhXHQDPua8Y7Bys2cbc89uM/0qdTxy3B68c0wA4GcD0wKUdSARRcCUqCOOD2xSorJzyPwxTBktjINODbSCOPemmSxxKscNx3+WmuzA5U719uo/CjzgBnOfrzUC3cRnEaozyMcKI0JJPsB1NVa4If5pfBdwxHTI6VHIhI3D88U6e2khupUnRo5AfmjbAKn3HrTC2Bw3J9awV0zUq8cg9B79aTcAOMYFTSDPPH1FV2+V+mD9K2WoEnmb2G3GD6GkIDcEcflTgd47DHXFRSNwBxjtQ1qBMsalOM89qcFYHaWyvuOtIhAXGPyFNMoX5SB1/PNRqMlYhec5B64pjM69BhewxQELnP6VIdgXlicfpUuyENVGdi7c85IpZY/KBbaAfT1pqzkkgHGQRg96ikMkuCxLY7Gps29RlAXctpfRXkDGOaKQSRtjowOQa+ifDmtw6/okF/Ey7mGJFB5Vh1B9PX8a+eZYAWKnORjHeuu+GuqzaT4kSyeQta3v7sqWwA/VW+vb8a9HBV/Zz5Xsznrw5o37HttFFFe4cIUUUUAFFFFABRRRQAVk+JdPGpaBdQjO9UMkeO7LyB+PT8a1qKUoqSaYJ2Pmy6uw+oTAFdoIGfoMH+VPUqO/wBfWut+IHgQ6ddSaxpsRNpK2Zo0B/cnuf8AdP6Zx6VxkKEk5fAAxxxXz1WlKnLlkehCSkrouK+RwWx71KucbiAOPQVChRTtzwB2qT7QmayuUPUkDnPTuahkkxx29aR5iWwvA9+9V5TyT145NCERT3LliASo7+9df8MdHGoeJDfSnKWK78Y4LHIX8uT9RXH21ndapeR2llA81xIcKiD9T6D3r3/wr4ej8NaJHYq/mSk75pP77kDOPbgAV34Oi5z5nsjGrOyscL8QtEnttXOo2qNJHcRtJIq8lCuAx+nIP51xQdWXknnoQK991G1e5tw0BC3ELeZEScAkfwn2I4P1rjdT8D2utRDUNHlS2MoJeBvubuhHHQggg8U8VgW5OdPr0ClXSVpHmBdjTG+dcMmCOQa6efwP4jt1cppu8A9VlRs/TnP6Vi3Wm6tbErLpd+vHVrdgD+OK4vZ1I7xZvzxezMwMVbPv0xQFy2eduCR+XSrNjZXmrX0VlDCGkkfaFJGR+ZxVzWtLTw3r39mpeLfqqDzjsKbGOeOp6DH501GTjzdB8yvYq2p3Rhm4B7mmbWMuF5BPU9TSlhJKMjAzwBkYp8aopzjGTnBNZ7FEgWTG08c56U9YCsjfMAByc96VVJYEN+NSeUWy27PXIzyKxcgIWSAR+YMDHzcdvWq7ScHBGQewyDU8gjVB1IJ+uKj2h8Bcde59qStuxlR8M5kztGOnc0jSNCY5I3ZXRgykHBB7GnzBUJHRh3B61WYfKASMCrXcR9L28v2i2im2lfMQNg9sjNSUyI5hQlSmVHynt7U+vq0eUFFFFABRRRQAUUUUAFFFFACMqupVlDKRggjIIrz/AMQfDSG5ka50V47dzyYJMhP+AkdPp0+leg0VnUpQqK0kVGTi7o8QuPAniWCTB04yDP3o5VYH8M5/MVlyaFryuVGh6ifpavj+VfQdFcjy+n0bNViJHglr4N8TXO1l0icAjjzCsf5hiMVtWfwq1q4Ob26tbZDz8rF2H4DA/WvYaKqOApLe7E68mYnh7wppXhuHFlADcMgWS4c5d/z6DPYcVt0UV2RioqyMm29WFY/hxgllcWZP761u5kkHpucup+hVga2KxYwbXxhKo4jvbQSHn/lpGwX8yrD/AL5pS0aYLaxtUUVkaveNLdQaNazFLq6Us7ofmihGNzexOcKfU57Gm3YRyvj7xemhhLbTY4Tey7i1xsDeUR6cY3fy9K8rSSS5uGeaV5ZX5eRzlmPqSa9C+LtqLbT9GFtbhIEaVNyrwpIUgZ98MffBrzez4uBhuo5z3rxcdOXtGnsd1BLluaONr8HtipQx8yNXUAZ5YdxTfuspHOe3rVwKjqW544wO1ea5G4bUMW4KCc88dKaIW+8r9T2706RCiqy4APUUASiNGAUqe3oKi7AgntiqBvMzt/hHYVXlGxXB4z3x0q1dTBjxkN901VlDM209NueRVRb6gQSxjOVfac9c5q74Y0k654os7GRS8O/fMBkjYvJz6Z6fjVHyneUJEjSSSMAqKCSSemPU17R4J8KReHtOWeeMf2nOn75zzsGc7B7dM+pH0rtwdB1al+iMq1RRj5nVUUUV9CeeFFFFABRRRQAUUUUAFFFFABRRRQAUUUUAFFFFABRRRQAVja4gS60e6wd0V6qbh1CurKR9CStbNY3ibemmwzg4jt7qGaU+iK4LH8Bz+FTP4Rx3LGvavFoOh3epzIzrAmdo7knAH5kVheBNMvEsZtc1Vy+pariZwc/uo+SqDPTr0+npWhq8qayY9KsyJsyxTXEyMCsKK4cZPcttwB15z0repWvK472VjI8TaHF4i0G50+QDey7oWP8ABIB8p/z2NfPP2a4s70wXatDPESro/BU+lfTtZOseGtI11CL+yikkIwJgNsi/Rhz+HSufFYX22q3NKVXk0ex4ZbThmUbu2DVlZNrs0ecDgj1rpL/4WaraXZfS7mC5gxlfNOxx7HjB+v8AKoLf4eeJXlOY7aEZHzSTA/yBrxpYKsnblOtVoPqYBulaNg2AOpXNMN2UUqSNvcdxXb2/wsu5EVbzU4UU/eEUZYj6E4/lW3Z/DHw/b8zi5uz/ANNZcD/x3FaQy6rLdWJeIgjyUyedJtjDOXYBUVcn6V0mmeBfEGqMpktxZQdN9xlWx/u9fzxXrWn6LpmlD/QbGCAkYLIg3H6nqav12UssgvjdzGWJf2Uc94d8Hab4eXzY18+8Iw1xIOf+Aj+Ef5zXQ0UV6UIRguWKsjnbbd2FFFFUIKKKKACiiigAooooAKKKKACiiigAooooAKKKKACiiigAqC8kWKxnkdBIixsWQkAMMcg5qesrxMJD4X1Tyvv/AGWToe205/Sk9hrcpeB7GCx8KWhhBBuF8+Qk5yxAHHtgAfh610VZnhuSOXwxpTxH5DaRY/74FadKCtFJBJ3YUUUVQgooooAKKKKACiiigAooooAKKKKACiiigAooooAKKKKACiiigAooooAKKKKACiiigAooooAKx/FkjReEtVdHKN9mcBh6kYrYrktekGueI7Pw4q77eIi6vcHHyj7qn6kjj3HSoqStEqKuzR8H2FzpnhWwtbuR3mWPcwcYKZ52/hnFblFFUlZWJeoUUUUwCiiigAooooAKKKKACiiigAooooAKKKKACiiigAooooAKKKKACiiigAooooAKKKKACiiigArjvD9/aXnjvxAsaQC4jIQuud7BQqnOTjggdAO1djWfp2i2Wl3F5cW0QE13KZZnIAJJ7cAYHH55J5JNRKLbXkNOyZoUUUVYgooooAKKKKACiiigAooooAKKKKACiiigAooooAKKKKACiiigAooooAKKKKACiiigAooooAKKKKACiiigAooooAKKKKACiiigAooooAKKKKACiiigAooooAKKKKACiiigAooooAKKKKACiiigAooooAKKKKACiiigAooooAKKKKACiiigAooooAKKKKACiiigAooooAKKKKACiiigAooooAKKKKACiiigAooooAKKKKACiiigAooooAKKKKACiiigAooooAKKKKACiiigAooooAKKKKACiiigAooooA//2f/hDHdodHRwOi8vbnMuYWRvYmUuY29tL3hhcC8xLjAvADw/eHBhY2tldCBiZWdpbj0i77u/IiBpZD0iVzVNME1wQ2VoaUh6cmVTek5UY3prYzlkIj8+IDx4OnhtcG1ldGEgeG1sbnM6eD0iYWRvYmU6bnM6bWV0YS8iIHg6eG1wdGs9IlhNUCBDb3JlIDQuNC4wLUV4aXYyIj4gPHJkZjpSREYgeG1sbnM6cmRmPSJodHRwOi8vd3d3LnczLm9yZy8xOTk5LzAyLzIyLXJkZi1zeW50YXgtbnMjIj4gPHJkZjpEZXNjcmlwdGlvbiByZGY6YWJvdXQ9IiIgeG1sbnM6eG1wTU09Imh0dHA6Ly9ucy5hZG9iZS5jb20veGFwLzEuMC9tbS8iIHhtbG5zOnN0RXZ0PSJodHRwOi8vbnMuYWRvYmUuY29tL3hhcC8xLjAvc1R5cGUvUmVzb3VyY2VFdmVudCMiIHhtbG5zOmRjPSJodHRwOi8vcHVybC5vcmcvZGMvZWxlbWVudHMvMS4xLyIgeG1sbnM6R0lNUD0iaHR0cDovL3d3dy5naW1wLm9yZy94bXAvIiB4bWxuczp4bXA9Imh0dHA6Ly9ucy5hZG9iZS5jb20veGFwLzEuMC8iIHhtcE1NOkRvY3VtZW50SUQ9ImdpbXA6ZG9jaWQ6Z2ltcDpjYTFjMGQyZS1mN2M0LTQzOTgtYTc1OC1lYTg1ODhjYzkyZjUiIHhtcE1NOkluc3RhbmNlSUQ9InhtcC5paWQ6NGZhZGZhNzctN2JlYS00YmVkLWJlMDctMDNhZTkzM2YxNTZhIiB4bXBNTTpPcmlnaW5hbERvY3VtZW50SUQ9InhtcC5kaWQ6ZjA4MjRjNDItOWE0MS00ZTcyLWI5N2ItMTY3MTgwMGE2Yzg5IiBkYzpGb3JtYXQ9ImltYWdlL2pwZWciIEdJTVA6QVBJPSIyLjAiIEdJTVA6UGxhdGZvcm09IkxpbnV4IiBHSU1QOlRpbWVTdGFtcD0iMTY2NTQ4OTU0OTcyNDc5MSIgR0lNUDpWZXJzaW9uPSIyLjEwLjMwIiB4bXA6Q3JlYXRvclRvb2w9IkdJTVAgMi4xMCI+IDx4bXBNTTpIaXN0b3J5PiA8cmRmOlNlcT4gPHJkZjpsaSBzdEV2dDphY3Rpb249InNhdmVkIiBzdEV2dDpjaGFuZ2VkPSIvIiBzdEV2dDppbnN0YW5jZUlEPSJ4bXAuaWlkOmJmMGM5N2I1LTVjMWMtNDg2Mi05ZjFhLTc0YjQ2ZTM1OWY0MiIgc3RFdnQ6c29mdHdhcmVBZ2VudD0iR2ltcCAyLjEwIChMaW51eCkiIHN0RXZ0OndoZW49IjIwMjItMTAtMTFUMDg6NTk6MDktMDM6MDAiLz4gPC9yZGY6U2VxPiA8L3htcE1NOkhpc3Rvcnk+IDwvcmRmOkRlc2NyaXB0aW9uPiA8L3JkZjpSREY+IDwveDp4bXBtZXRhPiAgICAgICAgICAgICAgICAgICAgICAgICAgICAgICAgICAgICAgICAgICAgICAgICAgICAgICAgICAgICAgICAgICAgICAgICAgICAgICAgICAgICAgICAgICAgICAgICAgICAgICAgICAgICAgICAgICAgICAgICAgICAgICAgICAgICAgICAgICAgICAgICAgICAgICAgICAgICAgICAgICAgICAgICAgICAgICAgICAgICAgICAgICAgICAgICAgICAgICAgICAgICAgICAgICAgICAgICAgICAgICAgICAgICAgICAgICAgICAgICAgICAgICAgICAgICAgICAgICAgICAgICAgICAgICAgICAgICAgICAgICAgICAgICAgICAgICAgICAgICAgICAgICAgICAgICAgICAgICAgICAgICAgICAgICAgICAgICAgICAgICAgICAgICAgICAgICAgICAgICAgICAgICAgICAgICAgICAgICAgICAgICAgICAgICAgICAgICAgICAgICAgICAgICAgICAgICAgICAgICAgICAgICAgICAgICAgICAgICAgICAgICAgICAgICAgICAgICAgICAgICAgICAgICAgICAgICAgICAgICAgICAgICAgICAgICAgICAgICAgICAgICAgICAgICAgICAgICAgICAgICAgICAgICAgICAgICAgICAgICAgICAgICAgICAgICAgICAgICAgICAgICAgICAgICAgICAgICAgICAgICAgICAgICAgICAgICAgICAgICAgICAgICAgICAgICAgICAgICAgICAgICAgICAgICAgICAgICAgICAgICAgICAgICAgICAgICAgICAgICAgICAgICAgICAgICAgICAgICAgICAgICAgICAgICAgICAgICAgICAgICAgICAgICAgICAgICAgICAgICAgICAgICAgICAgICAgICAgICAgICAgICAgICAgICAgICAgICAgICAgICAgICAgICAgICAgICAgICAgICAgICAgICAgICAgICAgICAgICAgICAgICAgICAgICAgICAgICAgICAgICAgICAgICAgICAgICAgICAgICAgICAgICAgICAgICAgICAgICAgICAgICAgICAgICAgICAgICAgICAgICAgICAgICAgICAgICAgICAgICAgICAgICAgICAgICAgICAgICAgICAgICAgICAgICAgICAgICAgICAgICAgICAgICAgICAgICAgICAgICAgICAgICAgICAgICAgICAgICAgICAgICAgICAgICAgICAgICAgICAgICAgICAgICAgICAgICAgICAgICAgICAgICAgICAgICAgICAgICAgICAgICAgICAgICAgICAgICAgICAgICAgICAgICAgICAgICAgICAgICAgICAgICAgICAgICAgICAgICAgICAgICAgICAgICAgICAgICAgICAgICAgICAgICAgICAgICAgICAgICAgICAgICAgICAgICAgICAgICAgICAgICAgICAgICAgICAgICAgICAgICAgICAgICAgICAgICAgICAgICAgICAgICAgICAgICAgICAgICAgICAgICAgICAgICAgICAgICAgICAgICAgICAgICAgICAgICAgICAgICAgICAgICAgICAgICAgICAgICAgICAgICAgICAgICAgICAgICAgICAgICAgICAgICAgICAgICAgICAgICAgICAgICAgICAgICAgICAgICAgICAgICAgICAgICAgICAgICAgICAgICAgICAgICAgICAgICAgICAgICAgICAgICAgICAgICAgICAgICAgICAgICAgICAgICAgICAgICAgICAgICAgICAgICAgICAgICAgICAgICAgICAgICAgICAgICAgICAgICAgICAgICAgICAgICAgICAgICAgICAgICAgICAgICAgICAgICAgICAgICAgICAgICAgICAgICAgICAgICAgICAgICAgICAgICAgICAgICAgICAgICAgICAgICAgICAgICAgICAgICAgICAgICAgICAgICAgICAgICAgICAgICAgICAgICAgICAgICAgICAgICAgICAgICAgICAgICAgICAgICAgICAgICAgICAgICAgICAgICAgICAgICAgICAgICAgICAgICAgICAgICAgICAgICAgICAgICAgICAgICAgICAgICAgICAgICAgICAgICAgICAgICAgICAgICAgICAgICAgICAgICAgICAgICAgICAgICAgICAgICAgICAgICAgICAgICAgICAgICAgICAgICAgICAgICAgICAgICAgICAgICAgICAgICAgICAgICAgICAgICAgICAgICAgICAgICAgICAgICAgICAgICAgICAgICAgICAgICAgICAgICAgICAgICAgICAgICAgICAgICAgICAgICAgICAgICAgICAgICAgICAgICAgICAgICAgICAgICAgICAgICAgICAgICAgICAgICAgICAgICAgICAgICAgICAgICAgICAgICAgICAgICAgICAgICAgICAgICAgICAgICAgICAgICAgICAgICAgICAgICAgICAgICAgICAgICAgICAgICAgICAgICAgICAgICAgICAgICAgICAgICAgICAgICAgICAgICAgICAgICAgICAgICAgIDw/eHBhY2tldCBlbmQ9InciPz7/4gKwSUNDX1BST0ZJTEUAAQEAAAKgbGNtcwQwAABtbnRyUkdCIFhZWiAH5gAKAAsACwA6ADBhY3NwQVBQTAAAAAAAAAAAAAAAAAAAAAAAAAAAAAAAAAAA9tYAAQAAAADTLWxjbXMAAAAAAAAAAAAAAAAAAAAAAAAAAAAAAAAAAAAAAAAAAAAAAAAAAAAAAAAAAAAAAA1kZXNjAAABIAAAAEBjcHJ0AAABYAAAADZ3dHB0AAABmAAAABRjaGFkAAABrAAAACxyWFlaAAAB2AAAABRiWFlaAAAB7AAAABRnWFlaAAACAAAAABRyVFJDAAACFAAAACBnVFJDAAACFAAAACBiVFJDAAACFAAAACBjaHJtAAACNAAAACRkbW5kAAACWAAAACRkbWRkAAACfAAAACRtbHVjAAAAAAAAAAEAAAAMZW5VUwAAACQAAAAcAEcASQBNAFAAIABiAHUAaQBsAHQALQBpAG4AIABzAFIARwBCbWx1YwAAAAAAAAABAAAADGVuVVMAAAAaAAAAHABQAHUAYgBsAGkAYwAgAEQAbwBtAGEAaQBuAABYWVogAAAAAAAA9tYAAQAAAADTLXNmMzIAAAAAAAEMQgAABd7///MlAAAHkwAA/ZD///uh///9ogAAA9wAAMBuWFlaIAAAAAAAAG+gAAA49QAAA5BYWVogAAAAAAAAJJ8AAA+EAAC2xFhZWiAAAAAAAABilwAAt4cAABjZcGFyYQAAAAAAAwAAAAJmZgAA8qcAAA1ZAAAT0AAACltjaHJtAAAAAAADAAAAAKPXAABUfAAATM0AAJmaAAAmZwAAD1xtbHVjAAAAAAAAAAEAAAAMZW5VUwAAAAgAAAAcAEcASQBNAFBtbHVjAAAAAAAAAAEAAAAMZW5VUwAAAAgAAAAcAHMAUgBHAEL/2wBDAAMCAgMCAgMDAwMEAwMEBQgFBQQEBQoHBwYIDAoMDAsKCwsNDhIQDQ4RDgsLEBYQERMUFRUVDA8XGBYUGBIUFRT/2wBDAQMEBAUEBQkFBQkUDQsNFBQUFBQUFBQUFBQUFBQUFBQUFBQUFBQUFBQUFBQUFBQUFBQUFBQUFBQUFBQUFBQUFBT//gAaR2VuZXJhdGVkIGJ5IEZTSSBTZXJ2ZXIA/8IAEQgCAAIAAwERAAIRAQMRAf/EABwAAQACAwEBAQAAAAAAAAAAAAADBAECBwUGCP/EABoBAQADAQEBAAAAAAAAAAAAAAABAgMEBQb/2gAMAwEAAhADEAAAAf1SAAAAAAAAAAAAAAAAAAAAAAAAAAAAAAAAAAAAAAAAAAAAAAAAAAAAAAAAAAAAAAAAAAAAAAAAAAAAAAAAAAAAAAAAAAAAAAAAAAAAAAAAAAAAAAAAAAAAAAAAAAAAAAAAAAAAAAAAAAAAAAAAAAAAAAAAAAAAAAAAAAAAAAAAAAAAAAAAAAAAAAAAAAAAAAAAAAAAAAAAAAAAAAAAAAAAAAAAAAAAAAAAAAAAAAAAAAAAAAAAAAAAAAAAAAAAAAAAAAAAAAAAAAAAAAAAAAAAAAAAAAAAAAAAAAAAAAAAAAAAD84+J2ds9Xm+i2oAAAAAAAAAAAAAAAAAAAAAAAAAAAAAPnOe/B/J6vgOLf0bV7p6/L1X0ucAAAAAAAAAAAAAAAAAAAAAAAAAAAYh8dy6c08/o515HVWlYhiIobOgdePevc4vZ2qAAAAAAAAAAAAAAAAAAAAAAAAAPLytzLzd+beX1eBy6TyynKFomRVids7b3jqXscnUvV5fb3qAAAAAAAAAAAAAAAAAAAAAAAPnee/F/I6ud+T1z1mxMTRNiivrXaW8xBSyk3sJodNYJTQ+k78PuvQw6L6PP7W9QAAAAAAAAAAAAAAAAAAAAOdedtyDxO35ri3hvTEvSpbFot529DGYdaVtm0rENcbT8163TnU1jWGsxFE7I+z9DDp3scv23bjYsAAAAAAAAAAAAAAAAAAHyvLfgfhd3yfm9E8WuVb2ixDF41tWxVPlaO8V7trI6rFJmytX1qvEVJkFUNoztTzKzc3jrfq8vWPX5bV4AAAAAAAAAAAAAAAAGsOJeP18W8Ht3pa5aLlZswxaJYR2jaW6JYamkzJKnWbdEtElJg6awRbasbQ0ILRCneFWyffPuv0HD0j0sAAAAAAAAAAAAAAABXq/Nnz3fz/yuqWFmJnsmLsJUbQjmNrxKZynU00iaUFLZpMphEmkQVlVKQSjltEbVV7TTs1l9r6XN3v6Hh9TWoAAAAAAAAAAAAAEUPzN833/AAnm9NzO21ouGydpWc5lg0jZVKSYUImO7eWtZxVvlbfSuNGM53qwQXiCUtUdmKxJnbG8edWfQ7cf0n9N53vdFAAAAAAAAAAAAAB+f/n+3kvidtgsWiZNiIkvESbMLVFzG0WkYtWHSNonWrNoxdNSdcLKTnorIb0ttm0RT2QGLIarNYjia2sVJiKLe705fqj67y7FoAAAAAAAAAAAAHzHLp+S/jfWtxO0rdq4vFms385zWVjWt7ltZytFrWrpG2kR2iOs40rfxvjCRH0xJkzCKqjrNPS9OJ1mZIRG6MoqoxamqOuezydT9Xl9falzSAAK1VmwAAAAAAAAcB8Dt5Z4XdLZbqvVlesdo3mMRM9ZxeLMRNjZWNNG0xvZpCCV2DGw11jFJ8+b0JthNWZlqlINEMxtCarWFDSmUW6sxaKY9Doz93ozmmuDw8r/AFPXj+jfpPPAAAAAAAAHxfBr+dvlPSp01llNMWqzZiMWJrtMbGsxYNcrb0YvCzGiKsymsN4mhW9dbCdCCUWi5QIU7IzKsZN4iO0axW3S+9EFmt4hmKprD9HfUeV0r1OcAAAAAAAAaw/OHynd85xdPnZ62oLRYlLVLEYtGJjMtpnSYsQlznWpZvdFMxxNPn1h0azGlmYnS8RSnpO0NKzHZiUuZau5BdYyiNNzFDZT2iKWtJjR136Dg7l7/AAAAAAAAABzry9+TfO9Xi8/VpM7S1mJob2iQ3hJSdtKRSxMWjMTFWUFzm2ipaOVXprBMrQN4S0mJOqI5bG1W1o3iZKxtSI04rOmkbUbZTrWfJ6a2e7H9d/X+PbvAAAAAAAAAgq/OXyPf5fNt4FNr1ZkNLV3lm1bUTtLerMiMw1tG1oRatW8fJpLFsWaXjzeiN7I5jERhMtZVbElE1baWjMt6RXtGaWi0ibGbOSSk+ftHi7xT0r3L3eDt/u8IAAAAAAAAHLfF6OY+F1/O57pXaTJMb1ZmcTG8tkEb3rJE5ltCtMyxPncu+ImW8ZlDeK2iKxatqJipO1FfRYxmzVHoUR2jQs5zmpnMlUGseftFcqWjF4/Wn13jfT9eYAAAAAAAAp0n85fHeh4GHRVTZicyuUILExvSdrxiarRiUcqMTnZ7PLrS5NMXrDsRMeiveIrRLKxnaCIrzN3OdkQ3aE9YnxnbOdLRR0TGpiqGUUxg6X7fF+gfpfNAAAAAAAAA5L4XTyjwu/zV8zEsTLMbw2mNolESzEJCiOzz01Lux+xyezjfknzXo5vDSNLtLtrVqWRXSxMVLYLNF+ilqwWsY2rMVk1IzSdYa1mO0QXVrxNRnen7D+88MAAAAAAAADwea/5T+P9aCLehSc2jaYmJqt4nSY3qraVryoyrWjc/XH1/l+jePzD8j6/m+b0b3pBtK0azAr2azO9bbwyj1MrUtK5qtZMxMuaxVBVGmh0MTEApG8KOr9bfb+H7fRQAAAAAAAAD81fNejzbzei7WbJchYytPMZI7RAVLRpM1rRT0r1L1Ob9Ee/wj4fg6PlvI6eX/PehX2rteNE4IrKd1bR7uc5TErpEXM7bUZolI7xpnOJmMjmI5VLVjiY7P2b974EtgAAAAAAAAEFZ/NHy3p/Jef0XYbxEkTppGJiNGoiasql6/Q92P6p+l865eBRzt4mN78x8F5PV5GV/meTT5vLTysrfYdOfQ/a4+E+D6foZ2krG9YliZ8kmcy0jeJrQpbMm1FaVTaIjSY/Yf3nhXdIAAAAAAAAAEFZ4b8/3c28bsGJjeZ0qr2iSs17RpaOlety9797hu3gAc+8/p6D6HMABQytz/g6OEeD6Dm1tZ2kmLWTERZgK8tiKJqbNqwIKqt2In0O3D9efaeMAAAAAAAAAAB8vyafGcO/gcunhY3rF+8e9vT6Xry+w7Mfe6KAADm3n9HSfQ5wAPi+TX8s/J+tZpe/nNzOdZSGD0ueSu8ETJDzdWlop3S42rIo7R2H6Tzu3e9wgAAAAAAAAAAAAAAAAADn3Dv9t2Y27QB8fz6epev5E+O9nTK3q529HKcyv4tLRsmOW9ElU8T5Oka6xStMExmk+x34/p77Dx/Q0qAAAAAAAAAAAAAAAAAAPJxv4ON/tOzEUaT8HzadK7Mvxd8b7MXNp6WM+ljMei/ktZzuefqsZzpaIrRTtO0xDWYpjXpr+mvsfG+n68wAAAAAAAAAAAAAAAAAABzTzOrpfp8scPzL5Xd+l/U4Z7OF+J28U8HvuUt7fPNyjYmidqo4mLWstJ8+UO8b4zW0j6j0+bvn0/m+905gAAAAAAAAAAAAAAAAAAAc987p6F6PNyLh6Nr16314ilSfyN8j69Tk1t0n0sZ3iJImpokqjuhuio21j771OXpXs8f3Poc4AAAAAAAAAAAAAAAAAAAAHN/N6ekelzcz49umdmIA83O3KPI6+O+F2yYXsE2cxyxrHvd+P1nbh9b2Y/eejzW9IAAAAAAAAAAAAAAAAAAAAAA5xwdHt9GVOJ+46MwAB5mVvgvO6KmVvY6Ke/0Z+30Z2bwAAAAAAAAAAAAAAAAAAAAAAABWrPEPH7e8e1wgAAAAAAAAAAAAAAAAAAAAAAAAAAAAADwefT5PG/Su7AAAAAAAAAAAAAAAAAAAAAAAAAAAAAAAfB8ut2Y+v6cwAAAAAAAAAAAAAAAAAAAAAAAAAAAAAB8NzaRJ++6cgAAAAAAAAAAAAAAAAAAAAAAAAAAAAABz3n0+Qw07j384AAAAAAAAAAAAAAAAAAAAAAAAAAAAAA5tw9Hta5/X9OYAAAAAAAAAAAAAAAAAAAAAAAAAAAAAA4d4nd3H2+EAAAAAAAAAAAAAAAAAAAAAAAAAAAAAAfC8O/mY36b6nKAAAAAAAAAAAAAAAAAAAAAAAAAAAAAAOVeb0/fduHr61AAAAAAAAAAAAAAAAAAAAAAAAAAAAAAH538Pv7X6vH7u9AAAAAAAAAAAAAAAAAAAAAAAAAAAAAABybj36p14SyAAAAAAAAAAAAAAAAAAAAAAAAAAAAAAAAAAAAAAAAAAAAAAAAAAAAAAAAAAAAAAAAAAAAAAAAAAAAAAAAAAAAAAAAAAAAAAAAAAAAAAAAAAAAAAAAAAAAAAAAAAAAAAAAAAAAAAAAAAAAAAAAAAAAAAAAAAAAAAAAAAAAAAAAAAAAAAAAAAAAAAAAAAAAAAAAAAAAAAAAAAAAAAAAAAAAAAAAAAAAAAAAAAAAAAAAAAAAAAAAAAAAAAAAAAAAAAAAAAAAAAAAAAAAAAAAAAAAAAAAAAAAAAAAAAAAAAAAAAAAAAAAAAAAAAAAAAAAAAAAAAAAAAAAAAAAAAAAAAAAAAAAAAAAAAAAAAAAAAAAAAAAAAAAAAAAAAAAAAAAAAAAAAAAAAAAAAAAAAAAAAAAAAAAAAAAAAAAAAAAAAAAAAAAAAAH//xAAwEAACAQMEAQIFBAEFAQAAAAABAgADBBEFBhIhEyIxBxBAQVAUFSAyIxY1QkOQM//aAAgBAQABBQL/AMWtz7sL63omuW+u2n5zWNetNEpa3vK71qklHqzerYXGhb4o3X5kkKL/AHbpthNR39dXMYtWYpmKo48SA4m3t2V9Immava6vR/KX2p2umrqPxBRJqOuX+rwU4KPAf1dlJiovjDNKql38HEUXajV0vfVWi1hrVlqX5HUNwWGmprG+ry8JLVW6IQdL7lcjEK8IoJT2FPEqAtGWFS09pZ7p1KxNjv8AUyy1my1H8ZrW9LTTZqO6NQ1ZfFkY4tTRoKeB7Ff7KsecsQf/ABZ7dqS+sr3DjlxE4zhynjhXB03dl7p0tN7aZcUqFxSuU/DatuWx0c65uq81p1iLkhTgIGniE7ApMAyrh+UJzGXB/wCnEVoMGN0WGXUicZiOOytGpHTuxvLmwq6VvuW11RvKX4IkKNz74xF5VGwXgpqBSXjAPGBF7nHMAyxTFRRmFCsIycnwj1QewxHQYdQ1PHWMxVwSRPvwjAAODLO/r6fX0PelvqJ/AXFxTtKO5N51tZi9Tg0Xs+xT2Tsif1hUZKghuwPY9FhyKD/FjMzM8geU/wCrOYPb3jAx+zx744j4YeEYdOK6Ru280unpupUdVtPratRaNPd26G1qv4wlbxgxQcp2FxEwpR8QxYUKziMLgHjiYxP6yngu4APeUGI0YdLMqYyZByk6ae0IxOzFTi19cVLlgvKaXrdzod3o+sUNatfrN97i89daOJwxFaBhMfIKTKYBiieOcCIUzCuIH8o+5GYMhqi+sJ6u4hHMnk3U6hQGP0gQkM60p56c86gtXWNU9RaFODaNqz6NqVvXW5ofVbk1U6PpDBnNPtVpsanhMxEMpuhlQKZ48Tsym+IKix/VB3OljLynecR0zPHCpnDE6mIx4yrdIFe6zCS8YKJmPkjtZ42MejxAGI1YTaG5qWn0aO49MryjeULj+TXNFK/0XxGSu1+rz2lNsAODG4k8Z3AMw8p7xSGAfAPcUkEQECOsxAcp3B6oW9XkCx7nILPOIxy4xR0fZkjJFER4O5VTARJw9Pj9LrkW+pX1sibu1emv+s9YxU3zquLjdGq3TbH0+6vNb+i3XZfqdLubfg+eUSABiepkfL7Y+XEZ5Bp91I4/YxXjoVlJ8NVBpvTwKdSvmHv5EcYTl+BDjqMJiBeMPcK4AHfEGcQJgiKBAuAy8iQI3bEdgFZsAL+x/RModdStTp2oXVr1SpFYVmCArAr/AEmcTniBifkep5IAs6WEAwriBMF6PM1UY0ao87CnxX7k4bkYe56jBnM6aHCwTx9LTlToHOVT0ohQ8Oj7shJKGePiGnw71Li30e8tPa4tUHdZvFWFSZzAcwHjAQYMtPJM8hxh6I/srkA8YVaM+ByE/VnxgKpb3PU9pjnMBJ926+XtCnKBDCOlfE5CpDlockcvHOcqvyqIvMtSntLjGdF1NtI1O0ukvbb6KvRW4oX9qdOvKtspodZ5LMrjOZjJCcop6BHy7MCn5Z6SpiF0eGmyzlgeTMwTHUiNidTl2fSOSsFHZJ+SH5N3PvzXDEqSjE/dVnj68WJVIMbm0Y5Ow9bQH6PeVgqwMyysn+Xj0AZ0SCqj+s6zmcoPf7K3jmTnIjeOKoWXX9+BzmF42DMRhPaDjxmcRomFn2T+3RhOIBBOBEz6TV5UmuC1P3LA8npFTQqvb1tuar+86T9Fd2tO9tqlN7ete/464PfIwRV9QhaDEPGIPTOWCKkZ/TUuSpt69zdVr2yqWNT7c8DpoYY4Mz2DPt1OsrATKnU5+peoF5HyYj1MTkcqVK49RTqsMLx9TIOWwLrw6r9HvK0ZLnUXAnMGAZgEHKZ795yEycdiZ4xjgM/T1yxL8p8PNOzW3xZkMKuBmOCBzwOUGI9LiSwyjYh9JUdI2ZjEbLMCItUBmbsqcoeU8AE8JpVMgg1MNcD0qczsShXq2t39Hrtu1zpGpVhVr06i48kDDAYmCKmYehjI+zHvPFqnRzxUdNolr+i0i6tad7b3Gk3C2iPyVajL8uORwInfH7/cDyKM+C3BeKwpyr/klOmC3jxFErrxVggVKg4V6vFS2WZiYO4zDiCAHHeiFjpH0e9Nr/ttwqkTlhV5EIoEGSP+P3Pt5Myp61buMYxxNiaO17ffKvnStW13aJoxuWCvGFws5ExmJU1QC3jaLUZRbGndU6hRYEPPxYdBiciQpjEhlyafBlL0xnjCPV4+TEFYnSn1SmoSn9HXoU7mjuPbVTRrrAg4gM8Dzy4PkjkvBiM0b0r9tD2/c69XtLOjYUPle2iX1rt+881vfaNZ6jKmwk5XWwbiXG1dZQVNI1JR4OD7b0FdT1Dfep0reytqYSpkk0zFzOYn9wPVFxDTitmGowPP1Kis9bCxnnsxwJY03pWf0lehTuaWu7Lq2cxwnItP+RYQsMc4vYZ+3zNE2JV1K3s7Ojp9t/Dbv+8/xrWFtctrmt2G3jcX9fU66j0sPQCQEKsE9VUICxphW/syu2MlYOWXHdY+l6bYZ/GWeaPpv7xqn0+o7a0/UzW+HtEw7Avgauz9Y5f6N1oyhsLU60t/h1XItvh/p1KWeg6fYfzNX9n3Z/HXtdS0t3qGoS5xbw4iQ0eUoNwak/GVV7XDQoOY4gXCxkwXM65cu6vEH4eaa3k/Dbyt2/Q2lwLu1+ev6nUozTtIoafbXBArf2Fq/p4ymclkIniIhp4nPMR+ARw0qetGZuBeN6g+eWOtG0Wtrt3p9jS0yz/DatQ/U6ZtCoG0H5Xt7R0+22mKmqtL+xq6ffgy0I4e4HrNN8Fy2E7DKOVFM0zQCu78WduT1B6FGKR6FG0q31xt7RE0Ow/EaFT/AEG5JUqLSp6vqdxvHXKFBLajPiFomCtQtLZuJVwUpMWR1CijV5Dlwap/lgreONWWpK7cGqdzmApqYmkbau9abSdEtdGpfiSDb7znxF1KtaWHw80IWGmfK8tKd/a6jpNbRLm3YJFq8ZSqds5LusV/GzVBx58IanGebMprXua9rsW/uX0zZ2n6cfxd5WzvSbpptV1z+F9p1tqdLV/h6mLm3rWdShVCAtErgFanFmptcG22tq9ytv8ADuuTa7E0+jLa0o2dP8buYHT9Qv8AclpaW2h6JVoXH8tQ0231ShU+H2nsG+Hlu0t9i6ZRahtvTLeULalbL+Ruband2+ydIerf/ntdbhpWwv8AaPz29a5o6JtJeG3fz29Lf9RoGx7z9Xt789vq9ez0D4b3txU/P79rFNF2rpbaVo3567T/AFXuP89u/VP2/Tdk6V4LX89vJLK4vNIpUqOmfnt56kBufQq63Gj/AJ6/2n+67opUkoU//WD/xAAuEQABAwEHAwQCAgMBAAAAAAABAAIRAxASICExQFAEMEETMkJRFCIjUjNhkHH/2gAIAQMBAT8B/wCLVNmX7JzS0861hdom0g3WwicinUiMxzQpuKbRHlAQowPpB2YTmluvKhpOiFA+UymG2QgjZChQoByT6H9UWluvItY52ibRA1QCNpwQgjbknUmlGh9ItLdeMZSc5NotaoRGAYQTacEKE+i06I0nDiGsL9EykG9+UcWahFodqnUP6oiNeEp0fLkLRgnaOaHap9It04HVU6V3M2zvH0QdE5paYO/pUozO/ugaWPph+qcwsMHe0WfIqOzChRjHdNtRl8QiIy3dNt90ICLIUYMlC0UqVqiO5CuqBihQoVakTm1Gm8eFBG56e2bYxz27vbKjAabTqF6DPpfjsXoMQpM+lXIDbuzpmHJrrI7Q7IGwGOvN/aNMiUx3g7KFGxGPqW/LaUnQYsDssM45wt7A70W1G3mwiIMbRpvCU09+bBjm2dh1DPkNpSPiwdycA03USM1UbcdGzBjNSDom6WTZHbvXVTffCjddSP1naUj4TO/Xd8V0rvjYdy5t4RtGGHJunZjE83nEppLTIQqS672Rsn+47SjUvZHvVn5Rb72/7CpdR8XY4UoEHhQYzVKoH669x7wxEk62tN0yqjYM/abUc3QodUfIQ6oeQvXYfK9Rv2pVWpcbK6dpJvICNgUddqDCp15yd2n1oMBEkmThq+1uIOI0KYx1T3HJMaG6bGq662dw2o5uiHUH6X5DV6zF6zPtGu1HqB4CNd3hF7nanH76f/mJjZKA2XUv+PD0Tnd+0RBjA0eSi4lNP67GrUFMJxLjJ4dhhwKqiH2gF2QT/wBf1FjCHCbBhjsucGiSqj75nian7Uw61v8AG2baFT42Du1KzWZJ7y858VrRsoxqqjpMWgwZCY4OEhDtEhuZTupYNE+u93GN/wARsZo7CHFuiZ1HhyDgRkgcBMI12Dyj1Q8BHqHnREl2vHU8wWIMKc7wMYcW5hDqHL8k/S/IejVefKJJ15IGFWfld5+n7lW93P0/cqnuPP0zDlU93P0xLlVHP0RLlUdedz4/ipz55+i285V3SbvP0r2d1OknPn+n0T/cefD7rMj/ANYv/8QAMxEAAQQBBAAEBQIFBQEAAAAAAQACAxEQBBIhMQUTIFAiMkBBUUJhFCMwM3EVJFJTkJH/2gAIAQIBAT8B/wDFrUTEyAxnpRSiVtj32WZkPzKbVuk4HCtNl2mwodY13D/en6mJn3UmtceG8Jzi42VuVq0FBqzF8LuQo5WSi2+6vlZH8xT9e39AUupfL2Va3Wigj2rINhbqW9B5abaodf8A9ijmjl+U+4yaiOPsqXWufwzhOu0MhWhgurtHlN4zdKPVyM6KZ4gP1hMmjk+U+2Ta1kXDeSpdZJL9+FuQKOTgZftIFDBHKb1kFEoOUOtkj4PITNZE7vhBwdyPZ5dTHD8ym1b5uOh6bQwVS6QOSqTVaKvARIPKDk2V0ZtpUPiF8SprmvFtPsmo1vbY0445RK7xX9A5F2gqyPQEyR0RthUGtbJw/g+wkhosrU6sy/C3pHFII+gZKBQRRVLpAYORnlDhWuQoNa+Pg8hRyNlbub9cTQsrV6rzDtHSNDgIel1oXkHBVoI9YJRJTc8+jtdY3UjI5/zFWoNQ6E21QzNnbub9brtRZ8th/wAoutX6zaLzaDwrBQKOBWSQhRQGLW4omkFSpEFbVsQaqxp5jA/cmuDgHD6vUy+REXomzeLCsYKorcQmv/OHt/C2lN+EIOtCyjgFG64R/dCr4wV0tyAvvPa6QXC3IOzotW1gLZChqYXdOQe13R9W4Xtvn6PxK9wVYpUgrzWKRaqwM3hyaKx/lUqCtVaPGLyRgImla3LcmzyM+VyGtnH6l/qE/wCV/Hz/AJTtVMeS5eHse+TzPsPo9bH5kR/ZEEYvHOBjcry4KiuUMd47X7Y5V+ghcIrdeL9JwDwh6PDwBDx9JPH5by1OC3BA/wBAYpEH7LrtBysFXSsWt/5QcPtiltycgIoO+6KGC5FWrQVq0F4bJ3H9Jr4tzN/4xso3gK8VilVK1edqoIIKXg8IHjA9JQwEa9P3VWtqDaTiVvw3pQS+U8PTHB7Q4fRuG4FpU0flSFqK5XPotXilWRa/yq/CtS/NlqGaRGaRwMVyiAQgcOK3K00fnA4Xh845jd9J4jHwJBi8XjnAx0rV44xyv8p/aH7KvuqtBX6aQ6TkO8c5K3XjbzSDPQHFpsLTS+dEHH6N7A9u0p7Cx212axeAEVzmvQ2IvNBaqIwupArkrn7LrtA+gjJVIKsEqielVraBglbkHIlWvDH/AMwt/P0niEXIkR9HHqtA5ql4fHZLyvFoSakCLU1A2qKAwDg5IV5IcVt/ODwvMK3k4pNGDSifscHD7fSahm+JzV90cUqxebv09qBnlxNansEjS1yfpqj8wC0QAgAh6jgojlDhF1LeiVu4QtEFNbygFQGKXKC09+U2/pNZpvJO9nRXeSr9AHp0MFu3nrJ/lS8/K5azw6v5kX/xdIOvpUrCtWUCV32ntLOULxaItbEWocLzPstwKDkXK7W4Kwjygmih9I5ocNpWq0zoDY69FKlWChnT6d0v+E1oYKbl7BI0tKgfY2HscKXTxTfO1Hwhl8OTvC3D5HI+HTN5pHTyN7aqWlhM8m3pa6RrW+XSc8nBK7VHBOLXRVAqq6VkIcqsDlRghoB+lc0OFOWo0Bb8UXP9EKDQl43P4TGNjG1vp0/9yT1GNjjbgppodOfgaNymldIbcbVoFVaO5iLit5W61YRDVQVClYQpbgu1tWli82QN+ok0sUvYR8Nb+lyPhsv5C/gZx9l/Az/8U3w+Y9pvhh/U5N8PiHfKZBFH8rfX/a1H7O9U0oa0hvac6zh6bacUH12ni0Qhi7w11eiihZ7XhkVXJ7Pq2/CHj7Jp3AH0SvI+FvZTIw0UpR8Zw9Ap2Nyu1SpVgD8qsWiVpdM6d1BRsEbQxvs8rd0ZC0huIZc4MFlQ/HcjsTMLHEHD10rrhOGCgUVaHKpWFa7UUbpCGsWmgEDNv39pg+Cd8eOlITO+kAAKGNfBf8wKqTgtvKdwgUR+MBbbVV2gvtaIPaDLWn0Mk3J4ChgZAKZ7V8ur/wAjGpceGqBlDdl7Q9u0qaJ0T6cnC1SeEOkERaAX7hVuHKDE2Nz+GqPw2Y/NwodDFFz2fbHn/ctrE172V6XxtkFPCm8OB5iTo3MNOCc21S2LamNc7hN0UzuQ1M8Md+pyZ4dC3l3KYxrOGj27UDY9sqdM0Cxyo4yDvd365I2yja8I+HRHolf6Y3/kh4fCO03Swt6amsaz5R7kQHCitJEXO838e/zgmM0aWkFR+/6k1GtP/aHv+oFxrT/2x7/OaYtM7to69/1jtsa08flxge/u/wB1PtHQ9/1cvlsofdaGKm+Yfv7/AKvyzQkNKIBrAG9e/wCvtxUBuNvv74fMksjhAV1/6w//xABEEAABAgMFAwgGCQIGAwEAAAABAAIDESEEEjFBURBhcRMiMoGRobHRI0BCUFLBBRQgM1NicuHwJEMVY3OQ0vEGgqPC/9oACAEBAAY/Av8AZagxbDaCYVmFPhc7PyQjQTJ4+8h5sPv2cd/pCJthjFyMFrRZoB9hpm48TonJsazRDDiNwcEINvlZ434nsu8vfMzQL7/l3fDA537IsscIWZp9p1XoviOMR5My7Vf/AKRzWEkEIUT09knh7Tf0rlLNEvS6TTi3j71vWmO2FoDiepFthgcofxItB2L08Y8n+GyjQpBVoNUMwqSJT6nFMc15D29F2Y4aI4FTn1JjmOLHg0c0ow/pBhjNlSJCaL0969BaGud8Bo7s94vMW0ML2YwmOBf2JzLJ/SwMJ+2Rxy6lfeS55qSUNnRUldM6qUqap0kZEuOuiE1NTnIjNVQMyHYqkcxGfDF5ylbLMWkDpQT8j5qVntLHu+HB3YfdhhWf+rtGjei3ifJFsWLycI/24QuhTOKExNuY3IaFZArCqlWmw5KUphGlJ5lQ+TZybwOe4vnPhSix6wp5bMJqqKGHUqdyAL/rMH4IuPUUDEiOs782PaT3hX4MRkVnxMMx7nuxol+L+FDq5XPuLN+C048ddgqsabdSgJd6OznBEio0TpLnE7mqXRllsFAiqKlFuC6M9xKe8gtccITRze2apJcpZozob9yufSDNBysMeI8kIsCI2Kw5t9xkkyAzT7N9HO1a6P8A8fNXi7nHXZqgAJIyCrVSWImgTJwmjjLgsa5TVVOvFOOaNO9N71psr3LoiWip3I41WCdJfPbytniuhPGiEK1XbNHyPsO8vcL40Z4hwmCZc7JGBZwYNjz+J/HyWKw6kdywUtOtCpK/ZblO8UKmiDsctnyWjk8SvcSvJcMlOVd+wcUNVpx2SrMqUsFgdvkpykMimw3OEeACBcf0g38qbaIBmw0kcQdD686I9waxovOccgjZ7O7+hY6YpV51RF4RAPabgVMKXR3qQbOaI7lKmGKkcVQq6ajtUjM8VktxUqpsgiTMINwWqEqdy81imrRalYIuw69hVcFULIyqgYzy8gBonkNhiQCJHmuY7ouXKwaEUfDOLT679Qs0VwZDmI100c7TqWKxmvNUKwxVfNHm76KQy1VVuUgsJeC18FvCqe5Yu4IXTVTzWk9NmNEcZqaxlwWPYtK6qfRG9UIHFTMWETuKFUarELHiudimR2jm4PYPaChxmdCI0OE9D63GjslyvRhz1KLnG8TiVjs0Velrmp9LgtFm4r0fjVVo7U5rnY6LCuzGQU8UHDolYb9g4bAp65LDZWiOfBCklWbv1FdGXBaLGq6SxpotOpdSbIhRLPbY5ELGEbpIGoXNtsIfrN3xXoo8OJ+hwP2mwXRWCM6rYZdzj1ep2dzXnkmwp8nvmZnwQbJUCoVzsVRCS+PisSJZLyVStHb1VcEFqpLTZwWKEqqvBb1zTVY11WM3Y1VQhsGq0KrVeIWqmprHcqLHBBsG1R4TfhDyAh/WzA1Y0/JXvrQlvht8l98GbxDC51uit/Qbvgm2903QYM70R5xJbKXf6mYoE4sA3my0z/m5XmN/UNFJUogHGuqls02UCrXiiZV3KvS3qR2VohLxUiJhTyW40KktFQ0C021w3qU571w2Yhb1Kq+ezcjI10Wc1vUslgp4rm5rGqKcQTeMZxeDkafKXqZBEwcQVGg3CAx3N/Tkr7WS1bJUosZrGm9fCq54KeG2fhsliDqpNpuKrQobKeKJwPDFMI6V66Z5Iyo0YKrfsSxVMUZ0X5tVXDPZgpBCZCpJHNfyqM1PBOB5slorspDRcNV8lHsLyG3vSMBzOfy7PVIdpZjCo6QxB/net6LWkFrqiqx71WUtJqaxU6t3qnPGirRU2Uoiq1G9aKcubqNrmXQa4qk1hsqZrLiq9S6SFcVRTVEJdarVSVcM1NSksMMxsxmR7KnOSnNFuA2QbU1nKXPZOeR8VCjw+hEbeHqcSE7ovaWmSjWd1blJ6o3GCbTkE0AKcj2KiJEyVgVopHn09pYdixKxE1hPhVVmNk2zC54lvAV5hvs3BBSNFTBYKS3qVJKtd6NJqaCnOi1X7bJFaIfJYzO9c2p1nVdGqGU6bCWz4q9UbkKVUWyR5NiRHXmxDi85zPqkO2No4+jdv0XN55y0TpUkdmaGo2YSI2eW2qpPqWXWJrohZ8cVebErjUIOAk7AyUyuktdslh3rjtpmhSWwnTbzsFLAKgn1o0w0VaBfyqrTgrs965wTYsM3XtN4EZFQrQ4jlei+Wv8AJepvgRRNjxVFkRkojDIjeqzk+tFovkFzhVdIqm2SMq8Edd6nf7FmQVhVSbUbguRs8MxIujU1loviKWh3pAB4FU2VKpT7N6WOzTcqV2BSlMqfSd3Kc6qvcpzAaiaSO/FUmeKr4KnghIyKGCoK5qJZy66yJDMmauH7T9UhWoD0bhcdLX+eCgzzmqduyQopCXZswCPNHFDJVzU1mp7sFdGG4ohvWQFaLU5n3YENh8f5vUC1jD7s+I2Sp1hBVGzepiqkqqSJM6LCWwnotFNgr1IZIuka66LQIH2XURrNqopHND+FUwRNFDjsPOY4OBGvqlpY3pXb3ZX5IgYMptp3LRYVWuyZW9fNSxRr1qhqd2AUhirJBLbrhDF4HI4nvT4MZt6G/EL62wzszXGHEb8Dt/arrW9eilKqO3CYWm5Y10UvayTxJaKvcpmvBYBa8UCADkqdctFLJOGavC7PCiBqTuWEl5oBbt2yx3seSbjw9U+swAfq0UmnwHRSWC04BVpt+aOaNaLQaJ3HZihbnsH1eBMCcunw657bzpf4da/vL3Ra/wDdOtFg6NXOhacPJScK6Ko2YI4BdLZea0va3GmCdWRzAUmkN6lO/VXp9yFe5dLuUhnopymqP5uiB6Xir2KBnTfswVaeIQnWmKmMdU1obcAHR09UfCitD4bxItKLmtLrI4+jefD7GCqpKWSAXDZMhAQxydnHTjEU/wC02DZ4bYUNvst2xIETovEk+yvly1kdyLpZywPcnctAaXn+4BJ3ajydsLRlfh3j2zV6DamRCK84XfNTbZQf0vC51jtLRqYZkrr58FdEW6GNv85t7uTfo9sOcV4Dm5Bgn/2r2ee9au0KmAp7N6rkq86SvhH8q3TzQnRPM1Q57M1ioDInTawA9nqroUVgiQ3YtcjFsIdHgZw8XjzWm5UMkDjsnkiZSK3rGq3JlotUc2eG6ohhnOLfkmQIDLkJmDZz+z9N/wCqPF32r0WzwortXsBRbZLLAdbR8LJXOMvBfWbVFMWJKQn8tgJWh1TRhLVFulZrPY5Sr1lENzxVaoGVFNskCTeQ5qo4qBZZlocancK+sF0WAGxT/ch80/v1r0NsiQ2/nbe8lzY1nI3ud5Iys09/KN81Wyf/AEZ5qbhCg/6j/Ka9PbYbN0Nl7xQMV0WO7OZkEDBskNrgZh5F5w6z9uThds9vEgfz/wA8ftWiDZ78e18k4ygV5KmLtF6QTzkSsprFVVRxmpjJX5rVXslNUkWyWGOaa4YXtmBQuvyUzIqgmo9vdRsuRaNazPy9zwbbC+9skQPH84yUGOBIRGB8uP2GWGxGf0laPux8Izd4oww0RHxB6aI7GKcyZ9aiBreT555s5gbJTrRGc13KQQpXYZrCfBEYHJS8E9u5TnkuCxKqe1GFCFxjavinBo81Ds0EEQ4YpP3Paod2+XQzIb8lBaHXjDLmndWfgRtfHjvuQ25qN9MWtvpohuQgcGM/LsiWaMy7EacAp5BeKnlsDTXitQpZI6oE48V5qRoFo2WOq/dCdVSqZBhNL4rzJrQhCo6M6sR4zPun6SsbT6IjlA3TD/lsc95usaJknJNsllc76vekxpw3uKZChNDIbBINGz/E4ZxkyI3wKlhqnb1nxVa8VXPJBrjIqhmmkUka7N6ZvPZsx7VQ81B7PQ2bOK/5aotgN5x6UR9XO91Nl/fg1/n/AK7IUCEQxsa9eM8ZZd6FtiMItNonjSTJ/PHs2xLPGE4cQSKdZ7S3nYg4hw1UsOrYVPqkp9ywnvVHSJyUijdx3o3p3kGQoLozjlDEypxrlmE63jeMt0kHuZ9Zij2ouHZ7ssbWtmRDkex3ns/8fDWlx5YupuLD9nk7TBbGbvxHAp0X6OfJ2PIxD4HzXJR4TobwateJbMV+6M8zOiDYTS55wAGKDhZngf5xu+K9Pa4bB/lgu8kDFMW0HO8ZDuVyBCbCbo0S93WD6V9iE7k3gaGf7pj4TxaY0UeigsNX1l/OCifSFvcItujVu5Qfyj7fI2qHysOd6UyK9SN2LaG9YI8EP6uJLe1Tdy0bc9/lJc2xQj/qC/4q7BhMhN0Y2XvKJBii9DeJEJtsbdECzzbeze6XhX3/AGh3KcmGtmTruUbTlz4N9/uA9t4afH5KxfpJ7z7/AIx/DIf8vmoIkQ6C50J3b5Ee/wB91t4RXCG46BWqAYLmWefKhxGdP37Pf4htdJ0SIBLUY+ShMiUixPSPGhOXZL3/AHGPvWWHnhJuf84e/wDk2/eWibBPTNG2uM3xua3cJ+/7Ay1R4kEsvObcZenhv3Kztg3zCLbzeU6Va+/2wnYQ4QHz+fcrG5uHJhvZT5e/2Wp9nMCxtHpSXj0xykMh2IQ4bGw2Nwa0SA/3Yf/EACoQAQACAgIBAwMEAwEBAAAAAAEAESExQVFhcYGRobHRQFDB8BAg4fGQ/9oACAEBAAE/If8A4tFSBjexauSn/wAMLmAtcjjybp5r1/fXF5Ofq+3qxAf5WGqrFfhXzCd3qEz7X2fTyeHEwrmA2Zue/rjDk1+8uEALV0S2Hwb7vylLmUd9s4MY0+sseySqvMGpZZpcSkWYlYofeLGPiGZsWU5BhlvLvkaztg1h+l3KnjSlTPA+c6w1+6jQbsX6Ayy+XjXl65SvJFd+2cm659W3zHoSulJyhcsVmimk1LNrHRn7QmB3zuGwMZES8W5ekZmw3jmNx0xwyy7XKkR7OoLgYSVuFhVdBxuUI35uLOWU8mP3FDuVZLrL7zIYWB7h/wDB2xfnilr7wEM2ZCWjMuoydXqYLWHggxcBV5IF1YdquWNpHazPGnyiu4HutsWf6PaFyIyIhb852xFAXg6gQJVxK6zkPRg24S5bftFeUfyEl26i+B9/2zGQbFc31PTojU5ggtPGeX0ViNbwOyBXyANP/UJa3RKijsRKBOWLKgfrHmcGPaUPJxcdEDmmVFy2ECPOGU8UjQZ5lFcCFMGfdDaCZEqVXTXctYVF+fpPEMTgVH1SnVzA9LIWXT5T6h1GPvFCPgEr1rWpkZVU7vU/Z7fDq6z5yWV7xk77VXLP/wAY1PY1LBY9NTij0m8cHJKMgPhi4F9HIeO5YKZ0xoCZ5mCBh61DNUV1uLkB2yRLzas1lmYjFBBzcTTRpiiKmsvGTMsgLOMajifnqaFTpckLBo2vc1XL6k1jLnA9oAo12fLFrUY7XuXquWwYd52XhzpNJ4ZmOofLbvf7JrYE1+z0+P2M2wrU0BKYzp/jMfX7O5ku5VyZcpMPXMwS6wBQqa45jiuDKmoktYNVHhl7twFKsRa5Nrzcqq9DAr6BqAiBO7iME26ZmyVb0xGYFWbqLVXV7bx6whrNuLpnElGAgymBrIucJU4Eucq8cviZYjSrtmJda3TEogevUbLqjlzEeKrGtQDbzqF8ArezpNJ4ZcEeWvQXbw/Oa/Yb6OGoE6h2crfwNYfLxaq7N63Bu4xcF24Ywylrt6uZR4zIbIp5quv+xBm8MXgmdM9RCwKrX/ZXmByTRrbHUWY1XBW4PA/CDkFt1nH8SuoWGodtBuuErw27UqW0PBwv5lBn7mYvWvaWov6oKtQtY7lUrJfIfSULU9qBQJ0yRoh+xEbb8OYki4Csw5ma1Dj5YN9yhhuVyrFfoZsMRsaFYDcHD+T9cvp6FAFqwoFJ8AFW5DLR/MA15QT6uQfklC09CZ3YND/sqFhwGZAfDFpyUBkhLgaAiAMXO/5gLoU42logdrDHABY4uGu1qb3KK9EYuz6mY1acGcwWXPDcFXrvFV6RNKfl65lBxefRFTQg8lkMKs76mDX0UsOzyRQTldY/MxDTX/iWBXLTUKdsehHF0rxeXxC408U6jaUWCX9GPHIXo0HR+YOnEYWqHaOLDk4f+3eJf/RVdP8A0/W9OOxhfGj7vidCveYcHZh1G3us/wBczGUz31K0tK+DBRKaxxFa+Lcp94xb6Q+Fe1QSXh4S3wO8fxN5sCLuvUbRPsXJOiVeKg66rhr4Hb+YK+Zsol1i16FxbGx7rEtsAPPMBH8FQFlV3WWUFH3lTI4JtilLSzajOCjyl9Y6sZ/5C+2OlmWF83iDvQV7p+ITRxGW5xXK4NRheD4lwI5CjlP5PISz1oNTRZ+rZK2i5fiLfaN9WqZV5tlx0OoXKQ3XU1NwsUw6M+6MFqHLoes8uKpIqOVgxcrudaygMOF4IA0aGLbiqD4oELSBzKgRLwcwt1p1iWPhlQLApWCGLlksM+Alh1s/aXzxLQBMdwWJoe0DlwuU9+3mUssDdQ8W/NJQRRw/+zp9uxPxCTRehE2N2eF4lJSMiy8z1hdVc5jw2bi40s8Z/MWi+rOf7UaYAKugvbxdwMzo2buQLzYnGGeoHX4+LGTx+E/2EZqABNps6f0bodNwwg81l4gPi5uN6BfZGrQ7vP8A7KQArFxKAPoXHJKk7/Ewwi30fDCpl7YNesRSs+MmCXss3XEpCGoVuDR8dxbhjbEYDB24hvhfgmcAD3xM7dYYSfH3wxi7xSFl7cPEtRk1OIqum6jWpvkdSooNihZlNrvCNIUhkLirPqQFK+sKCyji4RlmmJReeItuLhAHd9xBocVo+sVV7ZxEqGHWbqVliq2w1nPab0N6s3FRF2dw8pbPjg9IWHUOe62gFwdMuE/3l7GDP7P1Wb5Ig3AHbt4PUv8ARG12EM5V7azAWQHOD3en4lc1p4iunbm5uScDn1irYvincCa/iZ1dnRdwLwwVx3HG0/ErNEt0lxkLQvzCmLHTyjZkzEF7laD7ImrMalaUcObZtbTmsyq57ybhscNyyVbc3omEbgs5iuO0W8YvupiW5OwmASs1bP8AcyuVHTOZe2TLZFwjvgYahYYo6ju7vQOobr5fWX1tnL+0QovttiPI5arEuNcmxAF1kMHcJQq8W5xLriV/S/aYezuBwBdrmpRv8Sgecy7ocGKqB8nu/owDGoFiTtEBFs5fFfEuRzeDw2VxNQWYUnYvUym0PH8Jrz6yxluQo/pmOR4OyogZMHmZEyaw1Gykp6NTBkuDAIIzt6hKWThEFxo4YADjxMDr03AuFPpb+krF8P8AJxAS+wGIRL4FWBUFnNwps36EoFL9bl+/Z4gLWOLuOy3hz95g09e1hfr7l/8AYGRLXBbiQqvHcV5MjVGo3YjjUxj+j0mUYLoJbftn2mcLWKX7JcwL0dRQ7UHJNwonMBWgddsXhc4NrK3c7IiGuq2J40oiBVO8fU/SCPlpyUqb8P3S4LVMi5hEY3Ao9X2nd8jLOuww3SYxROIrfNXGcbODYegzcR6i7mnMYmh8GO7u+4EvqGGYqD4lcAnEWOFRwtkvX2bsTId4wEuxrtvmKWXWuVVAKraOYryXvGPKVe6gIcjwVL7WDSdQtX+UOGuqcwFjYHUvNsrhqmIWAdoNETwHvMAqrI58TNytmo+rWDi4LrAeqXLGtBmJWQdF0wArJfoTG911dQ+PbnaFs4gWHbR4mCHA9essZYU6gRGlbDIcnou43agsqzw1yafP6O5POamkpi35sfBpGvIk2cIFeOZZxFdmSULS77QZlC2CQeAS1KHa4iLKWOMpHNJo9f4mFXsevvMcA+n8xwg/9dkNjNzf+ESsH6MRy+kwLDx+Zq30ZPaMVA39pgMirtrzcRga67mUP+TALwhBQx5cRaerUCcBzzfiMs8HQ9YUjA34+jLGHfiZDfo4l00sc6qql+bp5iWpv1g1MZ4SAFrHpzNALObSUE3bvhFV0MvA+AuV3h4oPIqxfr8zDhcHcq9uJaHBa8uo1AYr6TKA/UZjV0d/Dcr17+P0gVJ+vyV9E+I8Ych5eZXmWSuswPo8RNW2PMxD+aaZ4SZHIczS5aeO5bhx1GG9EoJ58Mq+Ie9xbFD5bhuW/o3AMPr6+0y4LHak2C8Rfjma9cycTPSpZxlXUow+qUMFXxHDCY7NTAgxrkmE1SuMCJLag1qW+2onFEX6xZ20PaaD1HMQwy55Yi0NjdzHu3nUqOWvHEsOTyXt9I1yatRzCXeE2G+yK5yRNjLY0DijahssluBCxdKgJTOQeY4EjYBm46xyPifyW9/0eNQlNnI+zBXNXTSDPYALc1TCQ3l2YJcYM8JlmnJzTxKi2cUM0qh5lVWLjZzNwnrFkmyWIbHSXZpxyLhnwhlzx9oHwEpOPq3Uzo9ab+JhL17n2DfOur4gSMm0z6mqrOewiGSUqUe6vtl5m9oxw/XCZydx95Zlk2ekDF73FDApbiIdZ97jk3kXbBE1kA4nBD7zp5cwLVY8QuT2Mj17lJp4lqGkfNheJnteq3hg5gzEvfP24hfBvTTHtM9Zbu7VL9lq1WZhgWPSABasrvtlrLZOYJ7/AKRpEXQcbRfUxCbyppxn/wBlgp6aEBZsibKeFjOX1IjizhOppx3yv5h9CZ7+YDRSurwNSgV2+WiVSb1RCoKXxKuo9SKC6hQ+lyoquKW/HiEvBQeFe3YBBymN/nP8kbLmtzewOSy5pL2KlUN3EtRR4zEuflNDDomJGXuCGlnJE/cvM3EsVcLmjicdssbuEc+DzEDWB85Zs4uOzKNDdG7lVNyMai9Q8yRXdyPF6nJhiumZKlekAKQ0m0Dd/wBfmKsaGV5gXVDzOUJmYfpGTrA83KRruKru+ZUuHzBAW8fEpcl67QJtL9U1MMGnC/iMLW24gU+K3C4FVyMcXFKX6TO6c3dRvVvpXR6R5CvTye5angrg0ix42x2BptLh+TKokr6k1AAGQqnDSCPSGtCMoRze5e2q2zxHybhawh3dzZoYoxM7HuRpxFO0tMwen2iOCoN83CggxzsOH0gs2XxSAmOWmzb9ZqUvW4oQBTPFWwsKs1zQLSC5GPc3pfUyqsFwfxCNoGTRmTp6PzOC9cQQhtpbifsUaDAqBV9RDKO79IASjiTHndN49Km0Hm/zDNNUdsqO28EAr0PMInR4zPJL4hTZD1czCi7THsBrfpLcXwJU8O0KrEvfqy7kXVhtuXCzk11K9hk7r2/xdUrDekc+NLvGfEKvOR1hv2/1csoK9Mz1XKqjxluKFcQ+Zg7250BWpVdW6eLjREcm/k1H4e2l/c/0mt44/r+/aOoFNlWMfJHJpLCVZkKS4pX2/wDUO9qORazLseHPxBUFtYMBKG04bp5IrM36ZS6nkL+svWBBr1+sXkGsbgSi3FQbVqp5QZ7bmDdAAPo/SM1BrElC6avF26TPrUtaxXTKq5QFZ8xgq1G2PsFUQr6O4Y2ygwfeE7ROjBpM8DLRWOo+5HG6qw7y1D6tQH1e3y5f89z0dOx9movbe9DDL3b4YMvb/NGOcRGSP8lov6QyaHH9pFVGbVvxcVVjdW96ikoZppSdymRhp3BCrYd8w+KG0FBPgV1cSHwXCXmKeKt5pzG+9yi23xOY98XFPgWMeWm99/iVu5XOyFWDOzv1mHuh4s1HmG//AE8yiXuHMYFr4IQ4+mZryGa7+IaEIG+5kNQ3fE+o5eC/0oOpoljNJgtt18AYa8/eOpbHozHAbyYL0EIOvOJQY2feLoRZh6ipbFZaIB/OnLvuxhlhB9Vfsw+kzhtmUtVy52v+vVr/AGXjvl1+pMZPkEhNoZ9H0iPOw/gNGXAd9y4lbZRR5w+sRr9R8y9tjlghQGPklaMuWKDBzcQobOnD95oAv+mph9vJLpfaa1Fw8XGDFpnLf3hBSidv8y6O2m4nDXeMys5DVJqMHZr6qtrmh+n6jl+jZe2sL0MYrrBr5GA54bGaYZHAp+sWN0iVp6skTwNZhTq0V8SmvcF/YLPmJZK0h4uT5/3S9h32qVX1s9v+w/EpGpZunzH1hu1i3yzY0o0VNNCgMtzjdDzx6xZ2BtFxwUtxuMy4U3GvRR7nBAMpNHk16xFRyXT4lhdRZpmGmT1ccH98xgDYZHMppxKc3BIDnTqVGeTe8Q8sN3VVM1HfCsE9q+T+z54cQ1s4fCaCFVrql/z/AKDiF2hTlL8FPPpMf2Eunsnaqr5Zh0gOaavmN2t0cLBbNHSIX2WIQYC8lwXACr5/5ES0QQK2/aVIvydwafHcJWF2DiYjx6ty4nO3bGMvUZQx2tk4l3OYbhs7TF0In/RtRzXEpHEttVbV8qr7/s9M4L+a39VT5ti9B/kGmPaufB2zU8+YP2Kp7Pb/AIeVRbvI+lJLKJYNyl9sjmCZnogaqBdi4rqYJcC30lIJ9094cCuGahAqlYUbITPdPlG2aXnb8xdIYoqoWQEoCFyqirtigWDt/mOuh5TuZqP+/SE/UZwaHo4/7+0vUFeayR9Ae3+ASoa4G2YWyAQBo/PtAgg1gH+KZre9D0L+K/7AMgGFqWDnD2JxA3wxuZUWhbv9YasjoMr6RaSNuMxGv63iOo+AlhBu9lQAoWMiySWdF70weFSI29B+0LW/I2nNUeW/GNxG7wrwlrXgx9f2puRXxA/I/wAW7XPRNMc+728wISAqrUxXTLk/yx+d/wCTybg4amR0A8NS3vlwRQ1QDduITu/iZ+bwIuLDnhCRxVoahjYg9UUMBz5gXVeDHAciPEIVGE+bEA1eiFOwsfKRJADQhrKa/N13+2XEZ+a5L9j/AAFsMZdCj8D/AK133VfgMntLGSs3h8cPR9UL7WAeuZlBYu5Rei5MalrAccxzXAUt+eVdAbZcjVWDPZD9I362ffIwRihbfQnzDxPw7evf7cLVQHZNzONIzWz2MVhe6zApmzJtG5575gt5beKParcr/sGoJGseUdstDXWM/rzMoccBKcB4p9MBIS/0ZzwYJH6fuRJU3dRNk3W7WjoHPvWcfvyZdNRunCnlo53qGmClXnxff9/SuvXxmBgG7+S38/v4oPHVvMBYDA6ssV4/fxqfFLuFv5A945elybULO6/o/v8AdeNtoH4WfRCSVXeIV4UB6j+/rjzDIo1c7tavz+/lWv4gfkHvAOhIl48r8qfQ/fyPPhKzypXtdxVQrUw5qxef38psCa0tr5pFzdMnvN9V+/k0iUFfkeblnmDKKjgeA/8ArD//2gAMAwEAAgADAAAAEJJJJJJJJJJJJJJJJJJJJJJJJJJJJJJJJJJJJJJJJJJJJJJJJJJJJJJJJJJJJJJJJJJJJJJJJJJJJJJJJJJJJJJJJJJJJJJJJJJJJJJJJJJJJJJJJJJJJJJJJJJJJJJJJJJJJJJJJJJJJJJJJJJJJJJJJJJJJJJJJJJJJJJJJJJJJJJJJJJJJJJJJJJJJJJJJJJJJJJJJJJJJJJJJJJJJJJJJJJJJJJJJJJJJJJJJJJJJJJJJJJJJJJJJJJJJJJJJJJJJJJJJJJJJJJJJJJJJJJJJJJJJJJJJJJJJJJJJJJJJJJJJJJJJJJJJJJJJJJJJJJJJJJJJJJJJOc1JJJJJJJJJJJJJJJJJJJJJJJJJJJIvKkZPJJJJJJJJJJJJJJJJJJJJJJJJJJOHo1L63JJJJJJJJJJJJJJJJJJJJJJJIDCLcOSxOt5JJJJJJJJJJJJJJJJJJJJJ2OfunBQFIM9rJJJJJJJJJJJJJJJJJJJQ48piPfEifE64FJJJJJJJJJJJJJJJJJgrGc7hateeR6/n6ZJJJJJJJJJJJJJJJHJohQMhFXwMZ3IaqkJJJJJJJJJJJJJJJedigiHKwFuDHkwi0mZJJJJJJJJJJJJJI3xGFmc4hamjSauAaTXJJJJJJJJJJJJJBm3UqxgXBLoQZUMYmVYX5JIZJJJJJJJJARZdh0oy8BzzIhsg6sZQ6TgJJJJJJJJJIVX+i93uXY/ZlfDay/pAdDo5JJJJJJJJMQWwb/JZbwj56irfUuMsXyPpJJJJJJJJJvoIjqhBlpdpcFiPzCCXKIW1JJJJJJJJIef2SaZMYZnI/awTmvAW0dMpJJJJJJJJJLKWWmFeospSGTTzIb3depUp5JJJJJJJJJ0wFFNKDsBjUP5qxELcehEzJJJJJJJJJI8lKvcd+hm0GjYMqTs9ScU75JJJJJJJJIilbHsq37Nabd4BXHnNrYM05JJJJJJJJJMRT6wuhBJGweRZt+DYUMDxLJJJJJJJJJAFu1cdrVJgq6mTaOGPN2eelJJJJJJJJJILTR8oNZJFJJNBdEr70PvRpJJJJJJJJJJJ8zyo5JJLJJM5skN/NG1s5JJJJJJJJJJJJJJJJJJLJIL/F59sZ4PoJJJJJJJJJJJJJJJJJJJNpC4j6o34CimnJJJJJJJJJJJJJJJJJJJIp547rcLrH1WpJJJJJJJJJJJJJJJJJJJJY7JXzOKeDmJJJJJJJJJJJJJJJJJJJJJI4JJJ2T/AE2uSSSSSSSSSSSSSSSSSSSSSSSySSTepSSSSSSSSSSSSSSSSSSSSSSSSSJSSSSSSSSSSSSSSSSSSSSSSSSSSSSSSSDSSSSSSSSSSSSSSSSSSSSSSSSSSSSSSSDySSSSSSSSSSSSSSSSSSSSSSSSSSSSSSGSSSSSSSSSSSSSSSSSSSSSSSSSSSSSSSUySSSSSSSSSSSSSSSSSSSSSSSSSSSSSSQySSSSSSSSSSSSSSSSSSSSSSSSSSSSSSCSSSSSSSSSSSSSSSSSSSSSSSSSSSSSSQ2SSSSSSSSSSSSSSSSSSSSSSSSSSSSSSRGSSSSSSSSSSSSSSSSSSSSSSSSSSSSSSTCSSSSSSSSSSSSSSSSSSSSSSSSSSSSSSQmSSSSSSSSSSSSSSSSSSSSSSSSSSSSSSSSSSSSSSSSSSSSSSSSSSSSSSSSSSSSSSSSSSSSSSSSSSSSSSSSSSSSSSSSSSSSSSSSSSSSSSSSSSSSSSSSSSSSSSSSSSSSSSSSSSSSSSSSSSSSSSSSSSSSSSSSSSSSSSSSSSSSSSSSSSSSSSSSSSSSSSSSSSSSSSSSSSSSSSSSSSSSSSSSSSSSSSSSSSSSSSSSSSSSSSSSSSSSSSSSSSSSSSSSSSSSSSSSSSSSSSSSSSSSSSSSSSSSSSSSSSSSSSSSSSSSSSSSSSSSSSSSSSSSSSSSSSSSSSSSSSSSSSSSSSSSSSSSSSSSSSSSSSSSSSSSSSSSSSSSSSSSSSSSSSSSSSSSSSSSSSSSSSSSSSSSSSSSSSSSSSSSSSSSSSSSSSSSSSSSSSSSSSSSSSST/xAAqEQADAAICAQQBBAIDAQAAAAAAAREhMRBBUUBQYXEggZGhsdHwMJDhwf/aAAgBAwEBPxD/AKWk2k2TT99dxBxcmMUsDvFe9alCDzopIsDZCRMn0dQP+BjE91cxKbjmWg1NDZZIexoN0hqMVDnY8wsGSjXPcWGBlc2KkSEXQhLPFYNkEzEjGMo0OtGwQ5Zc1z2zKtRGY2/kl7GdCTRW9mBMDk4nCjda+BOnRmZIuh5FaGmjI4GuVQ01v2fXDLvL8kErgeMET2NQehrInGXNZPAxIsFwamRIaMIedCSYt+TIxqDllhjRPZKEqSiO8mBGNtMrG2MXJtjTQm+h54S8kXQl2+bw0PWCGFw12Johncl7Ck2iEd1ifC8hrwKmWRj0NVEGJ8QXFG+hvjI8PhsfEKyGGx3cGdiPXJNuIl7hVxvA14MoqKiig4PHYskNGUJcLZbgSEhriE4Q0ThkqFpiCKeuQFyH0KBrJYWjnXLxwkaG61wjEqRlmxRiWWJjI1B8LwzHD5SIIaiFHsQ39gxm3Xq4ggiQvBQ2MlG0JMh+JHsLhcaCUNTQnGSkFLni4Nopkgm6F5EiLwLY1Bog6wyNI+w1Sq+zaOPcU/KOWY9GyV8lKYDY8ny40XBsoneDbK+KQ+RZHlw+hJsXkRLQvkpshgnDRF2IaGCDSMmgbf8A0PwkuhHCQim36Od8lMPfDRmhJMY4PJkr7G0dDJDao0jS4VXGeMORJdCOuL5KjIiTjQ8jHRtmmeOzsamiGtGo/STE2VCDIzRtQysDT7IRlTxymkS6GhH9mSEilGuaUvGjY+GbMjQ1s0HkXE4nbNafXpPsBIy0CY2Sl64UWBjTHgbpgJo+xrxxkh6Nc5EODGC+RlMk4eB5FovHZkz9BiXWMc3Xo046iGhJ5KoKDa5hGZQ35NkINCTQvIlVNScMyQeB0J8QX8Nn2d8b4SH8lgx5G40ekztx/GxaiENGGawfRg2QayPHYmKXAnHhmobL0UnMXQiCWRoi4wQ0LY9/heMjGjkmGXfR2NAlE9BmKhjYxJxOHDQ4Y4V7GiV9Crj4XmEjE0Kdca4s5bXQi+ROMbpSohBKjLoq16RcbmjG6yOjUMlE3xlD4ahPJhGXokkn6i02zE7rlSspsgsc4IMpilGTiNCMcZKWW79JAYkoWMjdKNspOMvZgfRB+eNcIJG5CqnH/ZKsEafDM8WCjE8iMixkbTG5oj2xfBIxrIkX8HBcRg9JH3r+RqaFSXBOiIcIJIbQ0YgzKFKO3/XKmH4vr/wvP3f8jjyh42VcQiIMDSkQ/kcFClRU8EXS5XEHx9Dy/SMaNiRIH4GhYKtjY2JiyP7NDF2d+BjWvLUL0QF1lwdHKDvV/InoE1xJ+5fRom8DXQhijyRLjXLpKjKMGOLSDQdNmvSsaoT0f6E0y8NkUJSI0VmOay6M/jt/H+PyRRiN0BfEEuKNLi+RaNGRN9FJ+Fhfj1GDYTWQldMt3/B/oTE9V8Ib8P8Ag4dT5/I1Ter+4lKGC8NELw8a4a5wScaKUnjn2fI6ih4fgtvrQ4vjXwURnWRfPG+KJ84KZOxZJkk0VL34Gjc/Z/sgscvAmP1uFlB24ImeNmXwhPBFxJxJkZkumDXtrr2mOy1/v7cJVxCKzfY226+IK0W6MCmzRaXijyJLs0LBYJYyyuf2qqHh8Ijb7Rjmly9WxceGhRDfCc4yWDYkpEeQ/wC/JgbF8e2Ju88PHfH4uq8G/wD1LJqhAxMohK2Yt19H+ZGMwHla+3N85kYbTxBDXWv5/NxWMTeUhkbdRGxb+v6NqvuTGTQpR79/ZJW1Rr+j39aMvf6ALH9/RkEpJvfv/wCklBrXv6qvb39NnpGNaXv80yJjsvb3+E4kR8+/2lkY226/+2H/xAAqEQEAAgIBAgMJAQEBAAAAAAABABEhMUFRYXGh0RBAUIGRscHh8CCQ8f/aAAgBAgEBPxD/AItYUn0X/YgTdydPjolrLo6zgJ/cwZEJaZQY3rw+n2+MqBbMK2e2YajTrt9IsS3vC3EeBL3EpbK/8geHpLg39zx+Kk2RDYu7vp+49WDpx/eMz3AYSwYlDLBUACUkXhALUCNTMNG+5v6QTGvTn6fEQ1Ozgy/SLuF5/r5RpK5iflEixAwDNo4YVDCN0mTvNkVrBBRVlp0c/uPxX3M+X7ZrdfP6Ofhl18i0eLMW06CWGoS5iF1LvUzWZ3y274jhrMXMoGQ3bd+GMfViNbiMX9he8onLEMkSE8T8MHyt0R+5iFWidvg+LWehuYg9g/LG44zANkVDEOuAWXiESoPUMK9gxAzF0ilgAyynEXLMZaxpLbR4DXm395QVL0h7fkgKj5n5PT6QxcPgagWzY+y+nrEvrBXUGENwAQMSkJWI4II6iWwzgiZmGpVZYq5I+T2HKIG2bwS/X2LUy7iuHKjKv8Q/AXD0EFSrzv8AdJ2S8ZgNnsAI1x7KuCCxOIK0xDc6iLInsLYDgwrmIh1E6ywhFuHWK7jA5cy0NjAtRW9h2fWG9T78DaCXy4v17y4pf284nmYZniZlKSgxOvOI4JwsbdQGyA5iFwwpDqAEUwxl9Ikb3AorrFqU6QNOYrxGzcoWyio0nFh2cM+vQ6e+vrhf6fKIqSHCUxOsLhqX0jKNQEL3DUfYCmoBzBbEpjVFw8a5lBZLDcWONRV1EpErGBRXEUy9xI0ivEIDXJ1JoYS/r73WG9HjHzMsDMAZVDMDqUxxj2GxzFu4eKBsjC6nJgop3CjUTmOyEO8syQeIBbuWCCXBHEdYLeWC4EbwZRYtqiDDA4i2y3dShsGtviTHD82vvUeo3wT/AEiULcXn6e52A6rzueKGCJcwRqWmTKInSA5g0xiqHXADmJiKTOyFHMatOsqOoYtJwxG8Idepyw6NQ2XEqDm4X3MR3AjutRDiaE2mDUMoJSB4sMo8h6Shqv0I06/QmTfyx9oLfJl6prz9ztQZy9ZleItalpdTq4mdxLmY5YAxKcQerKvwiutQhXVE3KNkT5pSmskQHeO6ajloljFRSZhnEMYYUktblDcWMThgVMmVeIqYJVuY4ieIoyiFiXFl3M18t+NH69zQSmK/rjwnRiBURg3uIkSjDAOYHSYumY1BUS/Gd0dmBd06sJSVCHW4IeichuZcEMcyhAECIGJUqYdS0xLJgSxtE7IFzLIFkdwI5iHJmIq5SJcRN1K1+cn2f7t7pRDf2PpBvErA5goljib3DulfKK4mS5XpC24LEHeI2OsQKIEaZY4goVuMoYAZGMozNMwZlrkl9SDpB2jnEXWLogBEEmQolmiIFoic8wjBGJaqnNwuUY0uvyVNKKX7mOsJX1is8fbiNu5XVHvgJuBioNYmEeX2lDmImGzEvpErMoY0xc2lLpxLeCAhZBAuIdzLcGbh7AyqmW4EneaRWsS2UsDCMTBiIOGKmWpbpAAqJGGDcJWx69vT5+6DVZ0/39xAOY5S7JQlvB7FruZEpgW6zNqCDcsW0l85jhl3xG0xlFDqKihcqFoPIidMIKhbEqLFQVlExbRFMQRKvcUuo61EimbaHc5Ez2zIaldYMMpkj7lp8T+v3NNrYmDJEBjbqFJk1L3qKrAZY1CckpcQpiV1nG4AypNvSC9LDfh4spcwEviUCC+pEeIV7ElktMS2DMp84cUzFjK8VibkDFO4ACsxC7ZTglhljqUS5uUpdPM/V+6NU1qXvEqpcwuYsUMxHeWKXiXWZaIwxuVDQzpCwfn+7wEmNMqixuDgMOKdSNjAl6gtiS+IkEtwiJDMQxygAURbG4hNEiNU7lgu5YXENsCxObKv3RiOn2zG8Y6xKZZhCh7G9zBzmZPCATwg3iBUC07AB9dvnNfTExBdPb+uOWsaXcXSDLH2GZVRJCllIjhBBbMO+o6WxTQgZdSxFcpSUw0I+Eu8xOEuGZ8ge6YE/B/cSzYmJcV6nRULJaTNZlOYYnMC3MCyJTYff+bv23bxV6H9/T6Ss5TK9HOO3bfjAvmaignKyjFyjiAcexAZYRexhmK2KcERKtEAFME2wmjMMjEzBmOol6gcKlUEMRWsjpzAECu3uicbGKzt6f7+YMtdQHbErcFWIUnM09gcw7RkK7n+57QYVHt1FsZ+ovlz84I0K88/WIS4eH7Ie0Pjj1gVr+CMCtQ8GKMMo9oF6vp6wq8sJ0KxAKdS6lG2dkOaK3TMkbhbDDkgSLHKPEjdiFYuMZl+E2Oge6pysZx46c/uIjkiXKahdQW4tS7myCyobajxyn47QCNB/nz/AK/6rxXuDKV4ABXizJgjQtiLcQpYxm4IjZKbEEwk2CK5YaEExLLshwYjhjcOolavf5HvFw5+ph/vGNcgdy/SIced6QZ6z1imvMesxlDxfS43UeBfpK275D++c0geb9XP+xssr7n/AL9/9XqNHXHd6REbzBdRUVLJRMYyuG8SiyLFS4JTPEpZl2DqIpiNuyHExkQgfnB938fB05J3/eU7qg/4I8Oiel3vv4ygAouXnE6xi8QtXBzOydedsX1ijMMMBzBhjUNVcODFugmnAbXg9ek08HwfFd2P14lD5LPP23zxLvacHY7ew6qYELeJlTHbM5SBFWoyVE3LVuYdZgjFQopgbsjTSEVawHtye/p8JuRrf29fYoFeIAGuPWEgoPYuV2Y2ZgMU3vEFpaVxKc5SlLiRxLGKxizk4m4LaE2AqVAdx58Osp583b8/hSIP8fx7CgadsO6Zft7VWljQ/CJHfEHEAQ0ZvkQbSBbB7xAFlISvbMdzD9Xy/UTseJr5H/vwy8hdFff8PsKPq+1f5zaEIWp6P4fX6xkgY8BCiNsSyYigS4fgeOPJzLeI8LfvUUEV9Dyz5wekeHw5AdGHwgFbOg5iDKvLt/vLQf3SGNB+T+CVOPL+43dnxfQIvY/PP3uYADwK+JONTLyaLFfL9/HyPQ3+PnLi+v4Pj6J3YaHx+78ftu2Y8XT4+iVzGVF7fP4+OZ2xGNuX4+229I35vx9n2WPWXe77L/NfH86PAThhY+efj4CHEFx0D6Y+PgGG84AoUf8AWH//xAAqEAEBAAICAgEDAwUBAQEAAAABEQAhMUFRYXGBkaGx4fBAUMHR8RAgkP/aAAgBAQABPxD/APFq2KZsLvZQqmwUdiZmOqc7UFEhApwgP747UGaBT4NeQNMqTAAkdnY0DNQAaXTGBWEFCnG0kar5xa2C+jDY4ThJRpEwCSgNJgnbJKp3HT/eSHzLwDar0YWMaEDfPM07G/WAElDNFNEuNKlUCkV6V81qp23y/X0sm+kqOyn7/wCcsgUVbGOkCzdZKMU3kgUcm9ZHd/TItBFQE33zzHGxGE3DgoA24lGbMIwpqHKJ44AKmhn91B1dSF5A/QHGnwbwE2RKAyuLshtFufRBSCZpYKEMchXVI3vb993rGQL8Kafep9MJEp3kdD8cXDB6E2getvW8YhKNBWjomMJcpQUwaCG0SG8EGJo6xt4nN3igVx0DxrR9blI7odJBv0NxodqzLB5ylQSilD7xeEhRMF4HRix/uL+EeYDGhO2A7TFeG7vxgNE88FMJXLE2TUdqtZ3zk+WaBH/vrBgHGg2fH8/OKmgBrZfo/wA3gEraJX8nGVR8IxOL75w9FOjt9dfzeISC76TuJ16xQ2PIbZufrvxxj5tBWmydaN/rzhwEhRd1fauUANnaHxrddeusTaI0uq+XvWBPEprXx48njGzyghhxUSdA/GsNtAyvGBDY20pxvV6sVCKEJSbgmnen+2NN6xFER1z7moOYOmappUJU3lEvRDKSFtSiHjvvWKtsoKOQUUF1aDKJRWZQheFHYm/5H1iBRKypz0dT1zt9ST5RUroujX1yNrLNK+XRvkN/OJxl5u6fz1h3JsTQX3D/ABht2mKH13JjG80A9eRJ8YliUR9ANHCnZvWzTRRTUnnRyzrNvlm6hfqb63ihiyLz1yecKRqivF8GpkzEuFoPXDzzhBEBKCyPW8EgwaIiOzl+eOsIjnBGrrd/fNm6wBZTkIQuw7Y+5jVIKoFqDTZRg5oRhjkol2f2d0yoIKQsBiOwoiCY+cMdIMOldnRpQNVCKkXA6KfFn64kg89flDd/HrKgAaQcb89T6/OMKleOG/8An7YAjkB2fb3/ALySCHbQg6G+351iaRLLwvKT4yC5IBOLZgad193h9YTelBeh5Q+ME8JUoD427n5xNxJC1F64xCEsGIbx8nv4wg7NotAKmy0TT5MhmMSG5P0fifprTRVoI+TjjGQeaBDhxJ5+maB3VgDW9/tikTprQfbd69YgAXSlIefIbw41K2DW6qOwRic6ezSYYEFqqdANCiEqIBKlzXbvxDfnCW6CLzuVUHIPjBIwOVbo+uEjXA+gMmQwMGHICVRLsP7G5DBoAqq8AYrcPdLdvWDR5GdYpWTWbcWvx15zxAl5R6Zs+daMIJQlOX7nc+DARLHyql+dq/XD17wVLwW3JVAADRfkJ/OcDUKt6J+J84JZolt12KaO7gig0ZEPevs384Q4qqZfTd/OOSHapK+eftrEAB1KHHMHnxzknN2gTwOg7842rQgpcT1/vAKIAph23iD5cCo0mnoAjkDzQ11gtpVVR7OOsQFHSNw7tp9sRkKUC5fj8eMZ9yclXSi75+DNIo0U306afTxm0fp1g+U896417VblYgQj/rFN4KWHxdbf55ydUyXc+NHg/wBYKnCqiLxTlzbFKUmtc8fr64ym9mQsjfyAYJQZcssyJxYlFRpRGETD+wQ5QT7R9qAcqgbcMRZHglDAyiE5q0DGySajXK6fFc3IPHxPCXsknGJgEQCBBXx3+3OSzJIagdqwn185ASkSISlCPlv3846TlQtHX2fXLYe8Q3A3SON3DNSt7ULu4nBOjstv7MCbiYbLum4/vmts+VHxZYaMVEI0OnbcN/XFOVN27HQrr6fwSjtFfyTkfzjCrlHsU8zx3mikGjcuyGkyNZwSSh3S6mp9ct7IG72F5P0usNCF0V+8fp+uOakpoHXHQ36YnTWqXSdaTnHYXgLDOobN+veJZKQgA90z85pvcTlPBrXGaYECjJqhW/jGLRLwc4u/nNLCWkFXvX1+/q5ZioG9ZrovyN946wgTuV3SLz1rr5yhiqJFCALLLueTAv8AomNBEAABwAA2O0R+SAXQjLsQ0j/XVlKiYQ6AFX1iou0aVWIEtGopoCHHH8HiEiF0PkMUCNWun5yLGKLnz2T7PxiKVQEUDhU2fXEWCrQa9gJE97xDYWLeTiTj+b7KbiNmk1b/ACzK4bVNNc1O+uATB7tFJJvPG/3ynFNdo5+frguLRrbPr/L6xoZPgA+ex+ctacRRX8YSTpnMBdIL71rrIldFD0u9j3Mk49A6qMddaOcC1S4F78oPjISrsWo+DGvjznJRWMvw2zeNSY3+qb/BjNSR0Qc+yY1tUulg+Gr9phqAcQpf1574xBU3WH6aa31ljtIAoVZ5fwyMuJsNTnmJ8b6zllSu1kNK/wCsGIpEx4Bd/cwK7OjpB0BdcfOeinOnsI9adZCLfwqhsC6DVXa5Y0WtNYvCHGz9MFTiSiVMERUESpwjEcKdbbHyjYaS8IH9YAMmsaQKbUBrFCc8coIFor4t424cGgw10+mt4XR7FFPR2D14sMQ7E2DZpx59fOOqPaUTo3v6f7yDIECKJ43Q+MqOrSLMQ26NeAe8RtRnU11vJ9eTjJAVjI83wfzjC4FCB5fpXB6LOlI9hVOjAtcRC1razv8A31kQLGhNHybfm5btNTOvNvl/lcg8ZNj6lusB5AEST2Drrr96JUEVPzH3xQKE3MfrgunYsp7I946pFtHhOST8/SbxpMQojzoeeH3ishU0noDt1msGRwOO94iR7BHpkuPLZNyPrf8APnElAqh0Tn5ujAWwi94lJrwesO41UDfI8YkPbQpe9kvLyZJK8AIntOdb5wdOugrOVOdCw39yxCx6+2sUZCtNAezuW9de8GMYXmJiIO99TnHysU6Bs9l2aEecZxr6AbHTE1/VhUyzRUGRGE3Tr3mxwxYbWyt7woh5KA383vBGiNGHL55/3gAjQ3mM16+c6iOvp80ye9PvNnVo2jnSfnjbMQWb5IR6nY/G827IjyH3431kZqPAkT1Y6zUEAAfQd88eecbdtCj0+MfHbYn3cuIwXxLPfr6Y06qVRQyp415zgTrkQk9Q/GczUUKQnJfXxsnUyIQCrjS8p7ON4iUDUVQ2cYqM0nrTSb/TI0U0BY3zz/rCd8iIXzw3f+cJX0KVhTWuFe/GKE4oQ2f75ysFO2z91wWSIAwM6l9fOPiQijr50eMQ5WUit7YhuaPvm0jVt5rq8/RDWE7AELvuw31P945M2QXpeX348TGQcQDQ8HTPjzggunJs3sYr298/fC2taKBR3x/Pzl3QKlTqWLvfH3w2kFKtZeJ4hJSPqOQQrCkDsdjbtXSHQAKOsGbBAhJ5IoNmoFU5Zx+DAxlIKqFTZ63/APRCXmwKkwBFDUfH9GPo1DuBrEQoIDeIhTp9E2XtwPXAkoP1565wIxIhqWc3XDvnnU3jGkwTv3HCH/yU71gEIUp0c78uusDh8KBrXNK/zWOm1DQXWrWt/p8YaMC6Rp5bv8dY+koQg+7v7ZJqHID4T7R4wkTHhGjx5wtDzv0749ZwByCwbu9/bLqHNpI+qmMM4iNq64MlojAKvxs8TAaEqRdE9Dvn5xTNcguuv0/OUSytt+E/zcN0gwjAPL+XnHdnaFVGim+/XnDOQwNI91h9ZiGXQJHus/B8ODA58dhdUWa9+nLHMWs937d/jGHwJY8XjzvjdfpiNVowh9hvn9ZkvB6DXxjBWiA0u1gmjvifXjFmpiAwM65HhmLAC4iQyyO57cQgGhBL1w+OMsmhxPYsddX4+nWbP14XjrXHGn3MeFoAqbgMXgB8/wCMTaDzC+unfzyTIUfh0R5rt/nOVq4hUdK684KyQM6A2TYD2ExfhtOpvSq32uAAdXbLogNcbpem6zUuRaevB9lt9uNS8vJTjo/jJgiLkkXjAuuSP9GCd4QIQ7NB29eHOQGiV2cxuj2+OmkiWHMu4fKP6YiNYKaR8ng+veIxERF366B759+EWscMhuuufXvADApIb1PBc0GQECF9h/DVwlAaGlnk1q4qa2iLReD1xrLdgQIJfB2YCg3AHPOjh6p8U++77cM5W03T1POGaKgsBD3zmlwx2tnPS4jTCp2gcPOIDltQPka+eON45Ds6I4ds045l3uxNV3ymO0qjcpNP+cqPNig0Vqk7PvmwVKmyJqNNXxigK7xZO2e8tndPA/z/ABjFoQizYV4P0wGcGLtpJPjhvjFCF3dijnfY+D486NnFV1H2off9MGQETYLzq84UTXAduJryvWEmmAMh4k5+u+XrWM2AgD9D/OsQaqlwz4Ow9+XCQxpTIc/f9cfcFex1x3PphWKKcL8wL9+MoF+gQQ654vhxgKaTWrqwlN+T3iBwCg23r393b3xl5MWxxLQeb7/HeSRqCmzRHk7n/MBG5eRe+Sa09YKzWEmkPXmPuZVF1Sa65g33f94WXtZDprRNvIdf0bz/ABRIiI6ROsO6iTttamndxtE04xkBA0dLhRs65NWOh6Fknp5f85RFkIbEXh9/tgXN4Iqhyg6vrnzvIyu7srnvZ8bzWBpPr37dYNk5xKff9bf1zZpSCijwbJ57/bD3l0ID3r6mj/tIKkANvJYmsYrJ02L8c/z65eHzeTfYo9ahkgz7TrfTxPwYOABJt+pmoBrkBP8APxkJgM5B+U7zmddwHohH385Zq9XQvXZbt5xagYpW1CfA8+80AkCDCbllu9f4qs7QKB137x2HKG6H1XBLi6XZ33lm7SUDR4aLr848BngsO9Tg+/1yio6dB6gp493KMlBG1Byk0m8dBuVhInhs+z9MEUOEQ/QZrLMT0Go6TbrCaDhQVvqe3zmwQ5ShfTxg8qBWcbhf9HKEhQCRTcvvcykAVQvCNbTX07w262jvO313edfSV3pTkcm97HX+8IMrBGbNVfeC8BATe3kj9jxjgIilpGnR8POvrgCjYegGrzeP9c41BQu4Kce9U9b1gz2hPJeJ0Q2a/wCYvM5sNBEqSpdDSWf0ZgFY1aGwKdW9L00OcmcCc88fOE1ZAh1KRSvxiJQqTYp45/lxJgFgEY75uWSa0FniATzkS2ldAjZSt5y2bC8Jb0Gvz26xsjvfb8Gb7o4BFcBq7PBz9MWnYm2HX7YAkxyVr7G/zhhF20APjnCOUpQ0NHWp+cGaQMwN3XZ8mI61A0Hw8h97htzAKkv89YRAFVDGX5f3wuL4gAcaFCrEWGpd1Qpx4ylnobH4MbQji0Xyz7ZFgEPib6f44dSOdI/Hn3ihAhqZ96s49nXjH4KC6IXs5vbb84qymmOuqvN51rEzCLClIfvxg4rnYPYl/wBZGZpgj2D19eshpDoDY8ZHvyFQPSPrrHEjjRLx15/xm3ldQFM5Fe31++Og50VL4EdusASJptPp5996xG6QTc9TfHvWC7MAHHxLHm5zF2x2vx9MFpHz3FYC9cWPvjnLLQ9kt+vridcdZu2ElexuuutePzgMhSDyOlH8879Yg8o06OgPv+TIH9nBMcx1GAYohMMgSPbN3INQrAnX9G7pWNhoPTF3ho2PaEuVlROrMmUkpSNSQenzrEutgaBS9HP+MByxiVK+n8mHakqkDjDKJgCHfjg1iLQJox8WBMj30ACjtOunlzdgQIsBNTenhmcoapYHtup9cLIo26pD5fTjHRpw7Jx2BjljriH7lflxVqLJG59NffvL00SAVfe+bipME3S/PT4wBNfsXsPB/HPONN+NBDWhLvj6aXeDyRAvkds5X146xIkIQBp8GapwjEoXYFhwfchjQWXiu/3/AJxgpGu2I9QrrxHp946KNeUHY9v89YmAmTtQXaPvl5+cfIjkHT4jh+v1xWrPk7PDsuzFMBHA57p7xoAt12Pru8fxzT2gwXada8d/XFt3CWN7vN/zjAvC0o64f59HKiOJFb4rLvrXrEhiPg9nxx7yxnUR98ynj98UmNBgvxvXfb/rNxDqgPioBceXfPWXVAyFycaYfTfuMxgQJtVU0u13N4qeyDcRdmwwZVQRKaZ0s19DsuFeMQqPC7vDPWCMCGyi8T85QaTU4ASU028PD6x1Id763muxsqptR/SNoKI5IrDkFK8ScY9GRFUAoLn7erOcAUOq8OgcQhvRh4VmhW3dXf2xAcbOgePjBRF0bdQ6C/XTixOTAce7MFiAAONL0bvL1jvBYpoH1bT7ZoCdeQX4lPFd4Ng0DYzXq+PjBAc9G1Oz3x1zi+QiIP3a+cS8hEXhr/mV5Kcn9yNYIqkoV/BB+MbEu5mLPEN8PPZjNimzQ5gNCa692tCU/wBLnYyM5/bATFxH66fH0wfICRFxs66/T1gk1OBYen3lY2mxRdZZBiyRjor4wUDCBFHXyfb3gzoqL0d7h9vf6MEChv8AVoPjFkom2xfp13/zAzkIjY8sgePO8bmCthNn3NQmOo1vQD5x0miii+frg2zgfLhT+T3jLEx8nv8A6YdFGm6+3+Jm6FMXY8O/JrxMKsZRefl7fc7cnRqcD8GMUeQQ122J38bwV4xRVN9+ffWsqQOtYuw3re/S4VqQAkAdwPGnFsytgEe+Pj5HDNHQ0XzrnXv048i5y4As0iCfGECiXg3s6ViaOP8ARookSiCAfICUShpx0ifSJEHidjwnHOCJi/JIA29n5xOX5lT40lV86x0UDZinmc/gw2FEjye5P18d3LSVVJ0fFxaDBZqPG+/jLAiQLDpxP54yDJUKu99ftjgAOuSf6wGuSUUXvjXH0ygArKE3xFHBZ1yK8A3Dgtl5oQZ57xQopdtjbfJ+mbyDo+DoXl17rllJMnWlo48jgLYSGnCQu8A1aBQuUayDKSUX73LFlppdftigSPh+mJAh7XrIld5XV93zvBmMQXdT8384Vxs3bbNYGLnkWE405UoA0CPvE5K+08e+MU95QEuvZw/bAWaCTT5oXlyyyPBRTw4CkjsGxNcR15JiKaU0VDW2bNnxkANk3SpNv8PzjyqOieOpxqfnEBSNsHnmGz6YO+RWfaVTXcuKB33a5Kym2+dKm+8LGmJw2eko4ivxMJNhuEVOABA547cJEYIL8vA61jHEYhTwjDfLzr9cXNzAhBet/GBEi+4dDv8AzjKiKwRgeFfgf6QWIYcR0M3UCvHhlf4jNQj8HLf6ZUMWrAie3OFFYqTY6HifJTCgs2oyXt9/j1h9mCLU87S40woLJ1w8cX/OcE5Gz3v2c3gWrTevFEl+2X+JgUaHJgRAHdMeh/nGOr0qZBf2uDFn4RHfP+OM5ww6V1OjWq88bwxHCklSwFe9AcNxHghtUrwBobu7akMYRgOcs9gKb1vzhRq4K8w30G9fUw3OrkuvEP5xix1GhH6g5mzTT6vli8cD3ziILFWECefHzvNkKXePp+M6PfZQ5bRBV4HWzv8AfBNa1ogvUe9u/pc2SOhgzTb6a/fJ6smzuxycrb4xVMSUnmJ5NZuzQrvU46l+lcDDNJVif7wEiiFECj9B1mnEjYQO2cvrWFsIabSdT0ZfVJa2OUQqPzAw2uEWDioDur57NeGqAWBlnQT+LhktGJLiJ3vVmqYJUdgj0bsKB895MVljGT15++BnrmbGtfZ14xopJhKAPBfUYuHwtg8uj4t2c8THRNN3oPLrxv7YaY06KXxE6SdvX9JKUDntKJ2iD5xGJfEAW33WfTFIQTa40zQzDAYfD4fzzgEInuv8f4yCaoNm3H2nM7yqH0AZ58NlN3CaqwTR5F3JrBbAGlNvicc5REGOg/Nv4wAaCG04Q1/OMNVjBQ+FdyescgX7BkoP1fXEx02qZEIlePjnx6jyhCjo13XjWFIZDi9nDDb72rnGct46PjGf016liBE4RBHyGF3inLFzZI8m9JsugGwG15H+cby2I0vduzi/zXh5CNckR4mq94lWKlAdOOp/vxllylFF8zn7uVKNBAp2aOTEIiZeT7p/DI5MSiHyPx5PrhUqmm4fI15PeSYDRFSlmuHQefOCcbrwITr/ADjslrQl4of3JxbRHZXFdeoKa8JwZKCgL0cbreVpygQUPXB+mWqT7Jwvc65/G8ArFKVSHpdb5mRJbKjW+cBdVNAMXYxoOy3jB0N9nPC3Xh9TG4iDIE1tGl9EvrCFUIKG/RbXnhOsLHHCpdePPf2zflo9iHl484paZBFnR0vr51m6ChRV0G7yH81iNKQq8Jv4n9JAGMV6NDW9L5RooTpNeJd99jrnHQZuC08xZ1gORGwDTUqc983GIIeTuv5cI05KyPoOERuOjEnn+duAHBI8v3WYrVFW7dI/7zVC4Xp1y/1cfPK3lL5m1f8AWUFQJNw1K+HFvlCF5OCd/n/GB51DZ5B/jHbqSEVG1EoZrRs/9Vw6IwBfIIC2CsDCHJSdrXCg0ctE2hIpERofE+n6YjsVF3Qvv7/fFeC9tdSDx9JgnCgXnpNEcHEHCEfjx/vOIEKg4837Y0GtsQ+xMLlMDJKBBr6N4wScQa4PNXYh2FMDncJae9yNm9vMmB3MGiPEs+udyUUFHjnnx9cFwXogH68Ypzjok2aPhfOPSoDYh5IzfeCgaWL6WI83cxUFIMBxd3d/QzWCVVTagc/Q3weMmnWKO+pqm5ghDW0sc602a184bRXoUduPuxoriDZGdxyLAVhNDG7nW33jqrAqpQr/AD7uCiEFBknAjvWvjJQTthAATWuP6TlVPYyJrZ8mzkwhigLF4N4AFCEnYWaQbsF/E/OMCRdt8+v5xhpgPwuTK5I2P8hjwQNIq7Ptgmtoqvi7OOHjHsFNggB4nH3MCqhqV74nz84dqQHZ2s+6/nGCQOXr4piKDFReOnfU/H5yWfL/AHmCRELxLDeFLJEiwKctCoptV/8AR4WsFpIKJUFOGb1iObIavmRdAfbQEMGLEQGlBDRIKmjWjHNXU5H8oHwycvKOoqgIaa2n2x7z1Dnk2/YX9cZTfhRxvg/fFuiCVRgb7usJcZgENOY9iXnjJb+aLmhipI49wIold2GRG9CedDiAB9vKHY2vWud94UiM0GPHDH84XBq8ZG88fHD1hQ5LA6Nd/vjdEBp9QcevphDnQglU5BvlO8USCLc0a3JY+ucKlTAlCvDv9c2+XvTNZ6nresZx9Mg5HRHsdnbzhpYlgJHvrnW/1x5Qew4OnZv/AJgxRgQKCPJfXrjClA518uUa9c4h5EHKrunfX59Y9RCbeW+pf5MAsD0bCBa3Y7u/6WMEtT87H2CPSDjENUESrqH5G8IOA7cjSjhJ98ZUjqjx+mcqDWo89TGxVFW8C7f+YtiWbdg9kv7THkqBK7dzx1fjxjqxCaB79c5IIAhRPF0d+TrAkaqTs+NnGucbb0wDVuKOTQa8L9QNsqlVRt7/APm5ujT9e/X/AOtWf4K+KjMHoeyDYVqmwUWulnJCbQt4RxgDb8sEu9rOWdH1yca2U30Pbh1jECnyAH5PBnYHA26l9+8Co7jmrT0Tf2xOjLGaGvCfGUYkvaPjh9fnGBrICeg5p8MdtSgSB9jjVKsi+RHYv+eMQLACi1Avv3/zUVnETG9oD7ZpQGgzs6p3nfkq2s4HfWvphMoag0kmgdc3ECMZ74OEU3ijkDUIr5AHuKVT+nsORal/7gwH+UFv+y/bAQO7+wBfrhoc1+jpAVPkH1i08HhUvxrxcjrjjt9CP+O8L9beXjgLgavfjGTII3jYCBAOb2Iycb8KUCpFrgg35f8A7cCoKd4N1XLUto/+kC4grgo6qIOzANmJHaTWqsKtW1a73zlxrIpSpp2aiH5y3ZdDYZ0nvvKNh63A9ba1xr/GIISooEZ/x4nvFjJG8lifb9MEgKaik0P6ffF30i+dTnr4ydrB66Hl8YHApvJD3oMcTtuex/RhI3sOz5OfP7ZLEQil7opHs5cJgtmglezj4mAk0NUG8tDU/kwGMsVQ6862uIhihBymoeL0ecoSEOx4Tz+n0wPlui7ObwjUeTU/s9BBz2A73kivgaRxhS7aIkvc7f8Aw5oOrWKuAG5KNDRgHTL7KLilhQSOWh7FdgGCbQbLy6cAVOyJakrfafzeB/G2jZfHGQAqWKntmWYaFeDpeZYea4xREo7L73sV7XJaHcGzTqzRffx3iHyBVtXPPZ98VbQDY+G7174ubNXpI1tGevON1K4WkujhOcAsT5Ss7PHzihoEIYEovJZ58GCilTQjWjJe3ziBdqowRSa+v8MDrUWnrUP+5C4QA1eDnreCmS6rGfUkMpVAo9oG54e8kQC6AQP7Mj+JupOE5Z0ye0w2v7b4vSf+p5m7tdB2cAY+tY5mlKeSGW79X/hMrJ4iAHZSBsjuLgwhge5BknfPuYDclKICDq9a1epl/b29P0PnGorRKwTaW1fHGA9iOuTyHleI6cMEBuiifkfO/bgLV/wBxXFnwSOJsP5rCwtAoSINccGO6F3sECCSGde8B6RANHFEN6lu+Poa6wrU4o6gOu5cWdKgSVIUnx3zlwUB09UNfn1iMVA8F51r1hkBIg6qtWAAqugKpvEOVNSiKAXjoO2Cj+0y1gPW0C7EY8+Uv/jSNggSo+AFxOGXl0Ava1ihnPIZGl00D93b3/5e2o2IJWLoEK8IJoA1ch5eBxBWoJmtgJ51m0ChT7R3Xif5zXATcpD+L4x0X2QVzdJTm8Hes7bJIi97Sve54wK2SuS8bwIQT1BzTvufTCIdygOW3Xf0nvKtmVdvnbggqSFtXU1778+83LMtCLOdGnj1PGa4waWfS9/BrAsETUe9eF9W/bK0NoNCtHcbk2CGC8f1V4IIAQhA2yqf7SbU9BupI001a6D2f+DxCF+MgKOw70GMTbQMHQMSjyFAz/28yAyg7EbEAPSGRKM3ZEW8ouQdRBENuwV2n47+N5oAnNAV0+vn/WawERFYNHfD3x5wRQDodpr9O8IElSHfw/H+cmBJzT1snd5OT5TQCGJ8J3khg8oqffHnOtA3AuhOn75vGgQBI4keOcdGBd4F0izS6Or7zbSHRDaaTxicSwjpqFAuzfpNL/bLv2EBFQbvYnLE/wDH2CBVoC6GvoXr/wCRCgpYXVUCsioU1xildITttzdIFbdkyKLjKXZo2bImmiecLi7yYDO/sYqu2SJVpPOcECDTvrq2fOaGAwOTd/X78GO+UKkdCNHiH2zfUOmiWyMeSHcx/wCRJvVOrve9zWO6lmriCAi0+59MD/QREcKNr21a/wBuDbhJISFBGmgO3vCRHMGeBpLmNAhMN70AXSVWBUOBAH/7HB5MaCDQ40WbzXO4EheJKkwweQW6eCJMiBxCO5nI1fOczRKrrhU8dYtTJWScaAf3IEaEDUcl4TkekHrAEczXyMm3ciiJT/f5ugAQNhgjuGIhQ4a2/LRBk9Q6/Lz/AH+VGQlgQ9bP2neIUFp5rv8Af0QkfdrY9QTd8e8JqPIJSwtSPmnVf79BxWmO+oHLPHVYZIWwMiI3Ro3hG/38bnVzVJnYoeBe0xolFXUBEFND+/ijzjYTN3ThCxkAZ/fnTJRtEifbJ9fWQHYAViSyOyMN20P78PYGGk74D5nhM71YSUdZ8E+/P9/IrWqiKI7gbOx7Nla0Bq1gutD1P7+jF6uoQK0VWVuQVfU5ZNgAD4//AFh//9k=;" vertex="1" parent="1">
          <mxGeometry x="70" y="100" width="512" height="512" as="geometry" />
        </mxCell>
      </root>
    </mxGraphModel>
  </diagram>
</mxfile>
